<svg width="339" height="99" viewBox="0 0 339 99" fill="none" xmlns="http://www.w3.org/2000/svg">
<mask id="path-1-inside-1_38_538" fill="white">
<path d="M0 8C0 3.58172 3.58172 0 8 0H331C335.418 0 339 3.58172 339 8V91C339 95.4183 335.418 99 331 99H7.99999C3.58171 99 0 95.4183 0 91V8Z"/>
</mask>
<path d="M0 8C0 3.58172 3.58172 0 8 0H331C335.418 0 339 3.58172 339 8V91C339 95.4183 335.418 99 331 99H7.99999C3.58171 99 0 95.4183 0 91V8Z" fill="#1F41C9"/>
<path d="M8 0V1H331V0V-1H8V0ZM339 8H338V91H339H340V8H339ZM331 99V98H7.99999V99V100H331V99ZM0 91H1V8H0H-1V91H0ZM7.99999 99V98C4.134 98 1 94.866 1 91H0H-1C-1 95.9706 3.02943 100 7.99999 100V99ZM339 91H338C338 94.866 334.866 98 331 98V99V100C335.971 100 340 95.9706 340 91H339ZM331 0V1C334.866 1 338 4.13401 338 8H339H340C340 3.02944 335.971 -1 331 -1V0ZM8 0V-1C3.02944 -1 -1 3.02944 -1 8H0H1C1 4.13401 4.13401 1 8 1V0Z" fill="#D9D9D9" mask="url(#path-1-inside-1_38_538)"/>
<path d="M30.2223 33H28.745L33.0178 21.3636H34.4723L38.745 33H37.2678L33.7905 23.2045H33.6996L30.2223 33ZM30.7678 28.4545H36.7223V29.7045H30.7678V28.4545ZM43.8984 36.4545C43.2507 36.4545 42.6939 36.3712 42.228 36.2045C41.7621 36.0417 41.3738 35.8258 41.0632 35.5568C40.7564 35.2917 40.5121 35.0076 40.3303 34.7045L41.3984 33.9545C41.5196 34.1136 41.6731 34.2955 41.8587 34.5C42.0443 34.7083 42.2981 34.8883 42.62 35.0398C42.9458 35.1951 43.3719 35.2727 43.8984 35.2727C44.603 35.2727 45.1844 35.1023 45.6428 34.7614C46.1011 34.4205 46.3303 33.8864 46.3303 33.1591V31.3864H46.2166C46.1181 31.5455 45.978 31.7424 45.7962 31.9773C45.6181 32.2083 45.3606 32.4148 45.0234 32.5966C44.6901 32.7746 44.2393 32.8636 43.6712 32.8636C42.9666 32.8636 42.334 32.697 41.7734 32.3636C41.2166 32.0303 40.7753 31.5455 40.4496 30.9091C40.1276 30.2727 39.9666 29.5 39.9666 28.5909C39.9666 27.697 40.1238 26.9186 40.4382 26.2557C40.7526 25.589 41.1901 25.0739 41.7507 24.7102C42.3113 24.3428 42.959 24.1591 43.6939 24.1591C44.2621 24.1591 44.7128 24.2538 45.0462 24.4432C45.3833 24.6288 45.6409 24.8409 45.8189 25.0795C46.0007 25.3144 46.1409 25.5076 46.2393 25.6591H46.3757V24.2727H47.6712V33.25C47.6712 34 47.5007 34.6098 47.1598 35.0795C46.8227 35.553 46.3681 35.8996 45.7962 36.1193C45.228 36.3428 44.5954 36.4545 43.8984 36.4545ZM43.853 31.6591C44.3909 31.6591 44.8454 31.536 45.2166 31.2898C45.5878 31.0436 45.87 30.6894 46.0632 30.2273C46.2564 29.7652 46.353 29.2121 46.353 28.5682C46.353 27.9394 46.2583 27.3845 46.0689 26.9034C45.8795 26.4223 45.5992 26.0455 45.228 25.7727C44.8568 25.5 44.3984 25.3636 43.853 25.3636C43.2848 25.3636 42.8113 25.5076 42.4325 25.7955C42.0575 26.0833 41.7753 26.4697 41.5859 26.9545C41.4003 27.4394 41.3075 27.9773 41.3075 28.5682C41.3075 29.1742 41.4022 29.7102 41.5916 30.1761C41.7848 30.6383 42.0689 31.0019 42.4439 31.267C42.8227 31.5284 43.2924 31.6591 43.853 31.6591ZM53.7848 33.1818C52.9439 33.1818 52.2185 32.9962 51.6087 32.625C51.0026 32.25 50.5348 31.7273 50.2053 31.0568C49.8795 30.3826 49.7166 29.5985 49.7166 28.7045C49.7166 27.8106 49.8795 27.0227 50.2053 26.3409C50.5348 25.6553 50.9931 25.1212 51.5803 24.7386C52.1712 24.3523 52.8606 24.1591 53.6484 24.1591C54.103 24.1591 54.5518 24.2348 54.995 24.3864C55.4382 24.5379 55.8416 24.7841 56.2053 25.125C56.5689 25.4621 56.8587 25.9091 57.0746 26.4659C57.2905 27.0227 57.3984 27.7083 57.3984 28.5227V29.0909H50.6712V27.9318H56.0348C56.0348 27.4394 55.9363 27 55.7393 26.6136C55.5462 26.2273 55.2696 25.9223 54.9098 25.6989C54.5537 25.4754 54.1333 25.3636 53.6484 25.3636C53.1143 25.3636 52.6522 25.4962 52.2621 25.7614C51.8757 26.0227 51.5784 26.3636 51.37 26.7841C51.1617 27.2045 51.0575 27.6553 51.0575 28.1364V28.9091C51.0575 29.5682 51.1712 30.1269 51.3984 30.5852C51.6295 31.0398 51.9496 31.3864 52.3587 31.625C52.7678 31.8598 53.2431 31.9773 53.7848 31.9773C54.1371 31.9773 54.4553 31.928 54.7393 31.8295C55.0272 31.7273 55.2753 31.5758 55.4837 31.375C55.692 31.1705 55.853 30.9167 55.9666 30.6136L57.2621 30.9773C57.1257 31.4167 56.8965 31.803 56.5746 32.1364C56.2526 32.4659 55.8549 32.7235 55.3814 32.9091C54.9079 33.0909 54.3757 33.1818 53.7848 33.1818ZM60.7791 27.75V33H59.4382V24.2727H60.7337V25.6364H60.8473C61.0518 25.1932 61.3625 24.8371 61.7791 24.5682C62.1958 24.2955 62.7337 24.1591 63.3928 24.1591C63.9837 24.1591 64.5007 24.2803 64.9439 24.5227C65.3871 24.7614 65.7318 25.125 65.978 25.6136C66.2242 26.0985 66.3473 26.7121 66.3473 27.4545V33H65.0064V27.5455C65.0064 26.8598 64.8284 26.3258 64.4723 25.9432C64.1162 25.5568 63.6276 25.3636 63.0064 25.3636C62.5784 25.3636 62.1958 25.4564 61.8587 25.642C61.5253 25.8277 61.2621 26.0985 61.0689 26.4545C60.8757 26.8106 60.7791 27.2424 60.7791 27.75ZM72.093 33.1818C71.3658 33.1818 70.7237 32.9981 70.1669 32.6307C69.6101 32.2595 69.1745 31.7367 68.8601 31.0625C68.5457 30.3845 68.3885 29.5833 68.3885 28.6591C68.3885 27.7424 68.5457 26.947 68.8601 26.2727C69.1745 25.5985 69.612 25.0777 70.1726 24.7102C70.7332 24.3428 71.3809 24.1591 72.1158 24.1591C72.6839 24.1591 73.1328 24.2538 73.4624 24.4432C73.7957 24.6288 74.0495 24.8409 74.2237 25.0795C74.4018 25.3144 74.54 25.5076 74.6385 25.6591H74.7521V21.3636H76.093V33H74.7976V31.6591H74.6385C74.54 31.8182 74.3999 32.0189 74.218 32.2614C74.0362 32.5 73.7768 32.714 73.4396 32.9034C73.1025 33.089 72.6536 33.1818 72.093 33.1818ZM72.2749 31.9773C72.8127 31.9773 73.2673 31.8371 73.6385 31.5568C74.0097 31.2727 74.2919 30.8807 74.4851 30.3807C74.6783 29.8769 74.7749 29.2955 74.7749 28.6364C74.7749 27.9848 74.6802 27.4148 74.4908 26.9261C74.3014 26.4337 74.0211 26.0511 73.6499 25.7784C73.2786 25.5019 72.8203 25.3636 72.2749 25.3636C71.7067 25.3636 71.2332 25.5095 70.8544 25.8011C70.4794 26.089 70.1972 26.4811 70.0078 26.9773C69.8222 27.4697 69.7294 28.0227 69.7294 28.6364C69.7294 29.2576 69.8241 29.822 70.0135 30.3295C70.2067 30.8333 70.4908 31.2348 70.8658 31.5341C71.2446 31.8295 71.7143 31.9773 72.2749 31.9773ZM82.3942 33.1818C81.5533 33.1818 80.8279 32.9962 80.218 32.625C79.612 32.25 79.1442 31.7273 78.8146 31.0568C78.4889 30.3826 78.326 29.5985 78.326 28.7045C78.326 27.8106 78.4889 27.0227 78.8146 26.3409C79.1442 25.6553 79.6025 25.1212 80.1896 24.7386C80.7805 24.3523 81.4699 24.1591 82.2578 24.1591C82.7124 24.1591 83.1612 24.2348 83.6044 24.3864C84.0476 24.5379 84.451 24.7841 84.8146 25.125C85.1783 25.4621 85.468 25.9091 85.6839 26.4659C85.8999 27.0227 86.0078 27.7083 86.0078 28.5227V29.0909H79.2805V27.9318H84.6442C84.6442 27.4394 84.5457 27 84.3487 26.6136C84.1555 26.2273 83.879 25.9223 83.5192 25.6989C83.1631 25.4754 82.7427 25.3636 82.2578 25.3636C81.7237 25.3636 81.2616 25.4962 80.8714 25.7614C80.4851 26.0227 80.1877 26.3636 79.9794 26.7841C79.7711 27.2045 79.6669 27.6553 79.6669 28.1364V28.9091C79.6669 29.5682 79.7805 30.1269 80.0078 30.5852C80.2389 31.0398 80.5589 31.3864 80.968 31.625C81.3771 31.8598 81.8525 31.9773 82.3942 31.9773C82.7464 31.9773 83.0646 31.928 83.3487 31.8295C83.6366 31.7273 83.8847 31.5758 84.093 31.375C84.3014 31.1705 84.4624 30.9167 84.576 30.6136L85.8714 30.9773C85.7351 31.4167 85.5059 31.803 85.1839 32.1364C84.862 32.4659 84.4643 32.7235 83.9908 32.9091C83.5173 33.0909 82.9851 33.1818 82.3942 33.1818ZM98.7294 26.2273L97.5249 26.5682C97.4491 26.3674 97.3374 26.1723 97.1896 25.983C97.0457 25.7898 96.8487 25.6307 96.5987 25.5057C96.3487 25.3807 96.0286 25.3182 95.6385 25.3182C95.1044 25.3182 94.6593 25.4413 94.3033 25.6875C93.951 25.9299 93.7749 26.2386 93.7749 26.6136C93.7749 26.947 93.8961 27.2102 94.1385 27.4034C94.3809 27.5966 94.7597 27.7576 95.2749 27.8864L96.5703 28.2045C97.3506 28.3939 97.9321 28.6837 98.3146 29.0739C98.6972 29.4602 98.8885 29.9583 98.8885 30.5682C98.8885 31.0682 98.7446 31.5152 98.4567 31.9091C98.1726 32.303 97.7749 32.6136 97.2635 32.8409C96.7521 33.0682 96.1574 33.1818 95.4794 33.1818C94.5893 33.1818 93.8525 32.9886 93.2692 32.6023C92.6858 32.2159 92.3165 31.6515 92.1612 30.9091L93.4339 30.5909C93.5552 31.0606 93.7843 31.4129 94.1214 31.6477C94.4624 31.8826 94.9074 32 95.4567 32C96.0817 32 96.5779 31.8674 96.9453 31.6023C97.3165 31.3333 97.5021 31.0114 97.5021 30.6364C97.5021 30.3333 97.3961 30.0795 97.1839 29.875C96.9718 29.6667 96.6461 29.5114 96.2067 29.4091L94.7521 29.0682C93.9529 28.8788 93.3658 28.5852 92.9908 28.1875C92.6196 27.786 92.4339 27.2841 92.4339 26.6818C92.4339 26.1894 92.5722 25.7538 92.8487 25.375C93.129 24.9962 93.5097 24.6989 93.9908 24.483C94.4756 24.267 95.0249 24.1591 95.6385 24.1591C96.5021 24.1591 97.1802 24.3485 97.6726 24.7273C98.1688 25.1061 98.5211 25.6061 98.7294 26.2273ZM106.407 29.4318V24.2727H107.748V33H106.407V31.5227H106.316C106.112 31.9659 105.793 32.3428 105.362 32.6534C104.93 32.9602 104.384 33.1136 103.725 33.1136C103.18 33.1136 102.695 32.9943 102.271 32.7557C101.846 32.5133 101.513 32.1496 101.271 31.6648C101.028 31.1761 100.907 30.5606 100.907 29.8182V24.2727H102.248V29.7273C102.248 30.3636 102.426 30.8712 102.782 31.25C103.142 31.6288 103.6 31.8182 104.157 31.8182C104.49 31.8182 104.829 31.733 105.174 31.5625C105.522 31.392 105.814 31.1307 106.049 30.7784C106.288 30.4261 106.407 29.9773 106.407 29.4318ZM112.772 33.2045C112.219 33.2045 111.717 33.1004 111.266 32.892C110.816 32.6799 110.458 32.375 110.192 31.9773C109.927 31.5758 109.795 31.0909 109.795 30.5227C109.795 30.0227 109.893 29.6174 110.09 29.3068C110.287 28.9924 110.55 28.7462 110.88 28.5682C111.21 28.3902 111.573 28.2576 111.971 28.1705C112.372 28.0795 112.776 28.0076 113.181 27.9545C113.711 27.8864 114.141 27.8352 114.471 27.8011C114.804 27.7633 115.047 27.7008 115.198 27.6136C115.353 27.5265 115.431 27.375 115.431 27.1591V27.1136C115.431 26.553 115.278 26.1174 114.971 25.8068C114.668 25.4962 114.208 25.3409 113.59 25.3409C112.95 25.3409 112.448 25.4811 112.085 25.7614C111.721 26.0417 111.465 26.3409 111.317 26.6591L110.045 26.2045C110.272 25.6742 110.575 25.2614 110.954 24.9659C111.336 24.6667 111.753 24.4583 112.204 24.3409C112.658 24.2197 113.105 24.1591 113.545 24.1591C113.825 24.1591 114.147 24.1932 114.511 24.2614C114.878 24.3258 115.232 24.4602 115.573 24.6648C115.918 24.8693 116.204 25.178 116.431 25.5909C116.658 26.0038 116.772 26.5568 116.772 27.25V33H115.431V31.8182H115.363C115.272 32.0076 115.121 32.2102 114.908 32.4261C114.696 32.642 114.414 32.8258 114.062 32.9773C113.71 33.1288 113.28 33.2045 112.772 33.2045ZM112.977 32C113.507 32 113.954 31.8958 114.317 31.6875C114.685 31.4792 114.961 31.2102 115.147 30.8807C115.336 30.5511 115.431 30.2045 115.431 29.8409V28.6136C115.374 28.6818 115.249 28.7443 115.056 28.8011C114.867 28.8542 114.647 28.9015 114.397 28.9432C114.151 28.9811 113.91 29.0152 113.675 29.0455C113.444 29.072 113.257 29.0947 113.113 29.1136C112.764 29.1591 112.439 29.233 112.136 29.3352C111.836 29.4337 111.594 29.5833 111.408 29.7841C111.227 29.9811 111.136 30.25 111.136 30.5909C111.136 31.0568 111.308 31.4091 111.653 31.6477C112.001 31.8826 112.442 32 112.977 32ZM127.265 33.1818C126.447 33.1818 125.742 32.9886 125.151 32.6023C124.56 32.2159 124.106 31.6837 123.788 31.0057C123.469 30.3277 123.31 29.553 123.31 28.6818C123.31 27.7955 123.473 27.0133 123.799 26.3352C124.129 25.6534 124.587 25.1212 125.174 24.7386C125.765 24.3523 126.454 24.1591 127.242 24.1591C127.856 24.1591 128.409 24.2727 128.901 24.5C129.394 24.7273 129.797 25.0455 130.112 25.4545C130.426 25.8636 130.621 26.3409 130.697 26.8864H129.356C129.254 26.4886 129.026 26.1364 128.674 25.8295C128.326 25.5189 127.856 25.3636 127.265 25.3636C126.742 25.3636 126.284 25.5 125.89 25.7727C125.5 26.0417 125.195 26.4223 124.975 26.9148C124.759 27.4034 124.651 27.9773 124.651 28.6364C124.651 29.3106 124.757 29.8977 124.969 30.3977C125.185 30.8977 125.488 31.286 125.879 31.5625C126.272 31.839 126.735 31.9773 127.265 31.9773C127.613 31.9773 127.93 31.9167 128.214 31.7955C128.498 31.6742 128.738 31.5 128.935 31.2727C129.132 31.0455 129.272 30.7727 129.356 30.4545H130.697C130.621 30.9697 130.433 31.4337 130.134 31.8466C129.839 32.2557 129.447 32.5814 128.958 32.8239C128.473 33.0625 127.909 33.1818 127.265 33.1818ZM136.202 33.1818C135.415 33.1818 134.723 32.9943 134.129 32.6193C133.538 32.2443 133.076 31.7197 132.742 31.0455C132.413 30.3712 132.248 29.5833 132.248 28.6818C132.248 27.7727 132.413 26.9792 132.742 26.3011C133.076 25.6231 133.538 25.0966 134.129 24.7216C134.723 24.3466 135.415 24.1591 136.202 24.1591C136.99 24.1591 137.68 24.3466 138.271 24.7216C138.865 25.0966 139.327 25.6231 139.657 26.3011C139.99 26.9792 140.157 27.7727 140.157 28.6818C140.157 29.5833 139.99 30.3712 139.657 31.0455C139.327 31.7197 138.865 32.2443 138.271 32.6193C137.68 32.9943 136.99 33.1818 136.202 33.1818ZM136.202 31.9773C136.801 31.9773 137.293 31.8239 137.68 31.517C138.066 31.2102 138.352 30.8068 138.538 30.3068C138.723 29.8068 138.816 29.2652 138.816 28.6818C138.816 28.0985 138.723 27.5549 138.538 27.0511C138.352 26.5473 138.066 26.1402 137.68 25.8295C137.293 25.5189 136.801 25.3636 136.202 25.3636C135.604 25.3636 135.112 25.5189 134.725 25.8295C134.339 26.1402 134.053 26.5473 133.867 27.0511C133.682 27.5549 133.589 28.0985 133.589 28.6818C133.589 29.2652 133.682 29.8068 133.867 30.3068C134.053 30.8068 134.339 31.2102 134.725 31.517C135.112 31.8239 135.604 31.9773 136.202 31.9773ZM143.545 27.75V33H142.204V24.2727H143.499V25.6364H143.613C143.817 25.1932 144.128 24.8371 144.545 24.5682C144.961 24.2955 145.499 24.1591 146.158 24.1591C146.749 24.1591 147.266 24.2803 147.71 24.5227C148.153 24.7614 148.497 25.125 148.744 25.6136C148.99 26.0985 149.113 26.7121 149.113 27.4545V33H147.772V27.5455C147.772 26.8598 147.594 26.3258 147.238 25.9432C146.882 25.5568 146.393 25.3636 145.772 25.3636C145.344 25.3636 144.961 25.4564 144.624 25.642C144.291 25.8277 144.028 26.0985 143.835 26.4545C143.641 26.8106 143.545 27.2424 143.545 27.75ZM157.745 26.2273L156.54 26.5682C156.465 26.3674 156.353 26.1723 156.205 25.983C156.061 25.7898 155.864 25.6307 155.614 25.5057C155.364 25.3807 155.044 25.3182 154.654 25.3182C154.12 25.3182 153.675 25.4413 153.319 25.6875C152.967 25.9299 152.79 26.2386 152.79 26.6136C152.79 26.947 152.912 27.2102 153.154 27.4034C153.397 27.5966 153.775 27.7576 154.29 27.8864L155.586 28.2045C156.366 28.3939 156.948 28.6837 157.33 29.0739C157.713 29.4602 157.904 29.9583 157.904 30.5682C157.904 31.0682 157.76 31.5152 157.472 31.9091C157.188 32.303 156.79 32.6136 156.279 32.8409C155.768 33.0682 155.173 33.1818 154.495 33.1818C153.605 33.1818 152.868 32.9886 152.285 32.6023C151.701 32.2159 151.332 31.6515 151.177 30.9091L152.45 30.5909C152.571 31.0606 152.8 31.4129 153.137 31.6477C153.478 31.8826 153.923 32 154.472 32C155.097 32 155.594 31.8674 155.961 31.6023C156.332 31.3333 156.518 31.0114 156.518 30.6364C156.518 30.3333 156.412 30.0795 156.2 29.875C155.987 29.6667 155.662 29.5114 155.222 29.4091L153.768 29.0682C152.969 28.8788 152.381 28.5852 152.006 28.1875C151.635 27.786 151.45 27.2841 151.45 26.6818C151.45 26.1894 151.588 25.7538 151.864 25.375C152.145 24.9962 152.525 24.6989 153.006 24.483C153.491 24.267 154.04 24.1591 154.654 24.1591C155.518 24.1591 156.196 24.3485 156.688 24.7273C157.184 25.1061 157.537 25.6061 157.745 26.2273ZM165.423 29.4318V24.2727H166.763V33H165.423V31.5227H165.332C165.127 31.9659 164.809 32.3428 164.377 32.6534C163.945 32.9602 163.4 33.1136 162.741 33.1136C162.195 33.1136 161.71 32.9943 161.286 32.7557C160.862 32.5133 160.529 32.1496 160.286 31.6648C160.044 31.1761 159.923 30.5606 159.923 29.8182V24.2727H161.263V29.7273C161.263 30.3636 161.442 30.8712 161.798 31.25C162.157 31.6288 162.616 31.8182 163.173 31.8182C163.506 31.8182 163.845 31.733 164.19 31.5625C164.538 31.392 164.83 31.1307 165.065 30.7784C165.303 30.4261 165.423 29.9773 165.423 29.4318ZM170.56 21.3636V33H169.219V21.3636H170.56ZM176.812 24.2727V25.4091H172.289V24.2727H176.812ZM173.607 22.1818H174.948V30.5C174.948 30.8788 175.003 31.1629 175.113 31.3523C175.227 31.5379 175.371 31.6629 175.545 31.7273C175.723 31.7879 175.91 31.8182 176.107 31.8182C176.255 31.8182 176.376 31.8106 176.471 31.7955C176.566 31.7765 176.641 31.7614 176.698 31.75L176.971 32.9545C176.88 32.9886 176.753 33.0227 176.59 33.0568C176.427 33.0947 176.221 33.1136 175.971 33.1136C175.592 33.1136 175.221 33.0322 174.857 32.8693C174.497 32.7064 174.198 32.4583 173.96 32.125C173.725 31.7917 173.607 31.3712 173.607 30.8636V22.1818ZM181.397 33.2045C180.844 33.2045 180.342 33.1004 179.891 32.892C179.441 32.6799 179.083 32.375 178.817 31.9773C178.552 31.5758 178.42 31.0909 178.42 30.5227C178.42 30.0227 178.518 29.6174 178.715 29.3068C178.912 28.9924 179.175 28.7462 179.505 28.5682C179.835 28.3902 180.198 28.2576 180.596 28.1705C180.997 28.0795 181.401 28.0076 181.806 27.9545C182.336 27.8864 182.766 27.8352 183.096 27.8011C183.429 27.7633 183.672 27.7008 183.823 27.6136C183.978 27.5265 184.056 27.375 184.056 27.1591V27.1136C184.056 26.553 183.903 26.1174 183.596 25.8068C183.293 25.4962 182.833 25.3409 182.215 25.3409C181.575 25.3409 181.073 25.4811 180.71 25.7614C180.346 26.0417 180.09 26.3409 179.942 26.6591L178.67 26.2045C178.897 25.6742 179.2 25.2614 179.579 24.9659C179.961 24.6667 180.378 24.4583 180.829 24.3409C181.283 24.2197 181.73 24.1591 182.17 24.1591C182.45 24.1591 182.772 24.1932 183.136 24.2614C183.503 24.3258 183.857 24.4602 184.198 24.6648C184.543 24.8693 184.829 25.178 185.056 25.5909C185.283 26.0038 185.397 26.5568 185.397 27.25V33H184.056V31.8182H183.988C183.897 32.0076 183.746 32.2102 183.533 32.4261C183.321 32.642 183.039 32.8258 182.687 32.9773C182.335 33.1288 181.905 33.2045 181.397 33.2045ZM181.602 32C182.132 32 182.579 31.8958 182.942 31.6875C183.31 31.4792 183.586 31.2102 183.772 30.8807C183.961 30.5511 184.056 30.2045 184.056 29.8409V28.6136C183.999 28.6818 183.874 28.7443 183.681 28.8011C183.492 28.8542 183.272 28.9015 183.022 28.9432C182.776 28.9811 182.535 29.0152 182.3 29.0455C182.069 29.072 181.882 29.0947 181.738 29.1136C181.389 29.1591 181.064 29.233 180.761 29.3352C180.461 29.4337 180.219 29.5833 180.033 29.7841C179.852 29.9811 179.761 30.25 179.761 30.5909C179.761 31.0568 179.933 31.4091 180.278 31.6477C180.626 31.8826 181.067 32 181.602 32ZM195.64 33.1818C194.913 33.1818 194.271 32.9981 193.714 32.6307C193.157 32.2595 192.721 31.7367 192.407 31.0625C192.093 30.3845 191.935 29.5833 191.935 28.6591C191.935 27.7424 192.093 26.947 192.407 26.2727C192.721 25.5985 193.159 25.0777 193.719 24.7102C194.28 24.3428 194.928 24.1591 195.663 24.1591C196.231 24.1591 196.68 24.2538 197.009 24.4432C197.343 24.6288 197.596 24.8409 197.771 25.0795C197.949 25.3144 198.087 25.5076 198.185 25.6591H198.299V21.3636H199.64V33H198.344V31.6591H198.185C198.087 31.8182 197.947 32.0189 197.765 32.2614C197.583 32.5 197.324 32.714 196.987 32.9034C196.649 33.089 196.201 33.1818 195.64 33.1818ZM195.822 31.9773C196.36 31.9773 196.814 31.8371 197.185 31.5568C197.557 31.2727 197.839 30.8807 198.032 30.3807C198.225 29.8769 198.322 29.2955 198.322 28.6364C198.322 27.9848 198.227 27.4148 198.038 26.9261C197.848 26.4337 197.568 26.0511 197.197 25.7784C196.826 25.5019 196.367 25.3636 195.822 25.3636C195.254 25.3636 194.78 25.5095 194.401 25.8011C194.026 26.089 193.744 26.4811 193.555 26.9773C193.369 27.4697 193.276 28.0227 193.276 28.6364C193.276 29.2576 193.371 29.822 193.56 30.3295C193.754 30.8333 194.038 31.2348 194.413 31.5341C194.791 31.8295 195.261 31.9773 195.822 31.9773ZM205.941 33.1818C205.1 33.1818 204.375 32.9962 203.765 32.625C203.159 32.25 202.691 31.7273 202.362 31.0568C202.036 30.3826 201.873 29.5985 201.873 28.7045C201.873 27.8106 202.036 27.0227 202.362 26.3409C202.691 25.6553 203.149 25.1212 203.737 24.7386C204.327 24.3523 205.017 24.1591 205.805 24.1591C206.259 24.1591 206.708 24.2348 207.151 24.3864C207.594 24.5379 207.998 24.7841 208.362 25.125C208.725 25.4621 209.015 25.9091 209.231 26.4659C209.447 27.0227 209.555 27.7083 209.555 28.5227V29.0909H202.827V27.9318H208.191C208.191 27.4394 208.093 27 207.896 26.6136C207.702 26.2273 207.426 25.9223 207.066 25.6989C206.71 25.4754 206.29 25.3636 205.805 25.3636C205.271 25.3636 204.808 25.4962 204.418 25.7614C204.032 26.0227 203.735 26.3636 203.526 26.7841C203.318 27.2045 203.214 27.6553 203.214 28.1364V28.9091C203.214 29.5682 203.327 30.1269 203.555 30.5852C203.786 31.0398 204.106 31.3864 204.515 31.625C204.924 31.8598 205.399 31.9773 205.941 31.9773C206.293 31.9773 206.612 31.928 206.896 31.8295C207.183 31.7273 207.432 31.5758 207.64 31.375C207.848 31.1705 208.009 30.9167 208.123 30.6136L209.418 30.9773C209.282 31.4167 209.053 31.803 208.731 32.1364C208.409 32.4659 208.011 32.7235 207.538 32.9091C207.064 33.0909 206.532 33.1818 205.941 33.1818ZM219.981 24.2727V25.4091H215.276V24.2727H219.981ZM216.685 33V23.0682C216.685 22.5682 216.803 22.1515 217.038 21.8182C217.272 21.4848 217.577 21.2348 217.952 21.0682C218.327 20.9015 218.723 20.8182 219.14 20.8182C219.469 20.8182 219.738 20.8447 219.947 20.8977C220.155 20.9508 220.31 21 220.413 21.0455L220.026 22.2045C219.958 22.1818 219.863 22.1534 219.742 22.1193C219.625 22.0852 219.469 22.0682 219.276 22.0682C218.833 22.0682 218.513 22.1799 218.316 22.4034C218.123 22.6269 218.026 22.9545 218.026 23.3864V33H216.685ZM225.046 33.1818C224.258 33.1818 223.567 32.9943 222.972 32.6193C222.381 32.2443 221.919 31.7197 221.586 31.0455C221.256 30.3712 221.092 29.5833 221.092 28.6818C221.092 27.7727 221.256 26.9792 221.586 26.3011C221.919 25.6231 222.381 25.0966 222.972 24.7216C223.567 24.3466 224.258 24.1591 225.046 24.1591C225.834 24.1591 226.523 24.3466 227.114 24.7216C227.709 25.0966 228.171 25.6231 228.501 26.3011C228.834 26.9792 229.001 27.7727 229.001 28.6818C229.001 29.5833 228.834 30.3712 228.501 31.0455C228.171 31.7197 227.709 32.2443 227.114 32.6193C226.523 32.9943 225.834 33.1818 225.046 33.1818ZM225.046 31.9773C225.645 31.9773 226.137 31.8239 226.523 31.517C226.91 31.2102 227.196 30.8068 227.381 30.3068C227.567 29.8068 227.66 29.2652 227.66 28.6818C227.66 28.0985 227.567 27.5549 227.381 27.0511C227.196 26.5473 226.91 26.1402 226.523 25.8295C226.137 25.5189 225.645 25.3636 225.046 25.3636C224.448 25.3636 223.955 25.5189 223.569 25.8295C223.183 26.1402 222.897 26.5473 222.711 27.0511C222.525 27.5549 222.433 28.0985 222.433 28.6818C222.433 29.2652 222.525 29.8068 222.711 30.3068C222.897 30.8068 223.183 31.2102 223.569 31.517C223.955 31.8239 224.448 31.9773 225.046 31.9773ZM231.048 33V24.2727H232.343V25.5909H232.434C232.593 25.1591 232.881 24.8087 233.298 24.5398C233.714 24.2708 234.184 24.1364 234.707 24.1364C234.805 24.1364 234.928 24.1383 235.076 24.142C235.224 24.1458 235.335 24.1515 235.411 24.1591V25.5227C235.366 25.5114 235.262 25.4943 235.099 25.4716C234.94 25.4451 234.771 25.4318 234.593 25.4318C234.169 25.4318 233.79 25.5208 233.457 25.6989C233.127 25.8731 232.866 26.1155 232.673 26.4261C232.483 26.733 232.388 27.0833 232.388 27.4773V33H231.048ZM237.001 33V24.2727H238.296V25.6364H238.41C238.592 25.1705 238.885 24.8087 239.29 24.5511C239.696 24.2898 240.183 24.1591 240.751 24.1591C241.326 24.1591 241.806 24.2898 242.188 24.5511C242.575 24.8087 242.876 25.1705 243.092 25.6364H243.183C243.406 25.1856 243.741 24.8277 244.188 24.5625C244.635 24.2936 245.171 24.1591 245.796 24.1591C246.576 24.1591 247.215 24.4034 247.711 24.892C248.207 25.3769 248.455 26.1326 248.455 27.1591V33H247.114V27.1591C247.114 26.5152 246.938 26.0549 246.586 25.7784C246.234 25.5019 245.819 25.3636 245.342 25.3636C244.728 25.3636 244.253 25.5492 243.915 25.9205C243.578 26.2879 243.41 26.7538 243.41 27.3182V33H242.046V27.0227C242.046 26.5265 241.885 26.1269 241.563 25.8239C241.241 25.517 240.826 25.3636 240.319 25.3636C239.97 25.3636 239.645 25.4564 239.342 25.642C239.042 25.8277 238.8 26.0852 238.614 26.4148C238.433 26.7405 238.342 27.1174 238.342 27.5455V33H237.001ZM253.475 33.2045C252.922 33.2045 252.42 33.1004 251.969 32.892C251.519 32.6799 251.161 32.375 250.896 31.9773C250.63 31.5758 250.498 31.0909 250.498 30.5227C250.498 30.0227 250.596 29.6174 250.793 29.3068C250.99 28.9924 251.254 28.7462 251.583 28.5682C251.913 28.3902 252.276 28.2576 252.674 28.1705C253.076 28.0795 253.479 28.0076 253.884 27.9545C254.415 27.8864 254.844 27.8352 255.174 27.8011C255.507 27.7633 255.75 27.7008 255.901 27.6136C256.057 27.5265 256.134 27.375 256.134 27.1591V27.1136C256.134 26.553 255.981 26.1174 255.674 25.8068C255.371 25.4962 254.911 25.3409 254.293 25.3409C253.653 25.3409 253.151 25.4811 252.788 25.7614C252.424 26.0417 252.168 26.3409 252.021 26.6591L250.748 26.2045C250.975 25.6742 251.278 25.2614 251.657 24.9659C252.04 24.6667 252.456 24.4583 252.907 24.3409C253.362 24.2197 253.808 24.1591 254.248 24.1591C254.528 24.1591 254.85 24.1932 255.214 24.2614C255.581 24.3258 255.935 24.4602 256.276 24.6648C256.621 24.8693 256.907 25.178 257.134 25.5909C257.362 26.0038 257.475 26.5568 257.475 27.25V33H256.134V31.8182H256.066C255.975 32.0076 255.824 32.2102 255.612 32.4261C255.399 32.642 255.117 32.8258 254.765 32.9773C254.413 33.1288 253.983 33.2045 253.475 33.2045ZM253.68 32C254.21 32 254.657 31.8958 255.021 31.6875C255.388 31.4792 255.665 31.2102 255.85 30.8807C256.04 30.5511 256.134 30.2045 256.134 29.8409V28.6136C256.077 28.6818 255.952 28.7443 255.759 28.8011C255.57 28.8542 255.35 28.9015 255.1 28.9432C254.854 28.9811 254.613 29.0152 254.379 29.0455C254.147 29.072 253.96 29.0947 253.816 29.1136C253.468 29.1591 253.142 29.233 252.839 29.3352C252.54 29.4337 252.297 29.5833 252.112 29.7841C251.93 29.9811 251.839 30.25 251.839 30.5909C251.839 31.0568 252.011 31.4091 252.356 31.6477C252.704 31.8826 253.146 32 253.68 32ZM264.423 33V24.2727H265.718V25.5909H265.809C265.968 25.1591 266.256 24.8087 266.673 24.5398C267.089 24.2708 267.559 24.1364 268.082 24.1364C268.18 24.1364 268.303 24.1383 268.451 24.142C268.599 24.1458 268.71 24.1515 268.786 24.1591V25.5227C268.741 25.5114 268.637 25.4943 268.474 25.4716C268.315 25.4451 268.146 25.4318 267.968 25.4318C267.544 25.4318 267.165 25.5208 266.832 25.6989C266.502 25.8731 266.241 26.1155 266.048 26.4261C265.858 26.733 265.763 27.0833 265.763 27.4773V33H264.423ZM272.944 33.2045C272.391 33.2045 271.889 33.1004 271.438 32.892C270.987 32.6799 270.629 32.375 270.364 31.9773C270.099 31.5758 269.967 31.0909 269.967 30.5227C269.967 30.0227 270.065 29.6174 270.262 29.3068C270.459 28.9924 270.722 28.7462 271.052 28.5682C271.381 28.3902 271.745 28.2576 272.143 28.1705C272.544 28.0795 272.948 28.0076 273.353 27.9545C273.883 27.8864 274.313 27.8352 274.643 27.8011C274.976 27.7633 275.219 27.7008 275.37 27.6136C275.525 27.5265 275.603 27.375 275.603 27.1591V27.1136C275.603 26.553 275.45 26.1174 275.143 25.8068C274.84 25.4962 274.379 25.3409 273.762 25.3409C273.122 25.3409 272.62 25.4811 272.256 25.7614C271.893 26.0417 271.637 26.3409 271.489 26.6591L270.217 26.2045C270.444 25.6742 270.747 25.2614 271.126 24.9659C271.508 24.6667 271.925 24.4583 272.376 24.3409C272.83 24.2197 273.277 24.1591 273.717 24.1591C273.997 24.1591 274.319 24.1932 274.683 24.2614C275.05 24.3258 275.404 24.4602 275.745 24.6648C276.09 24.8693 276.376 25.178 276.603 25.5909C276.83 26.0038 276.944 26.5568 276.944 27.25V33H275.603V31.8182H275.535C275.444 32.0076 275.292 32.2102 275.08 32.4261C274.868 32.642 274.586 32.8258 274.234 32.9773C273.881 33.1288 273.451 33.2045 272.944 33.2045ZM273.148 32C273.679 32 274.126 31.8958 274.489 31.6875C274.857 31.4792 275.133 31.2102 275.319 30.8807C275.508 30.5511 275.603 30.2045 275.603 29.8409V28.6136C275.546 28.6818 275.421 28.7443 275.228 28.8011C275.039 28.8542 274.819 28.9015 274.569 28.9432C274.323 28.9811 274.082 29.0152 273.847 29.0455C273.616 29.072 273.429 29.0947 273.285 29.1136C272.936 29.1591 272.611 29.233 272.308 29.3352C272.008 29.4337 271.766 29.5833 271.58 29.7841C271.398 29.9811 271.308 30.25 271.308 30.5909C271.308 31.0568 271.48 31.4091 271.825 31.6477C272.173 31.8826 272.614 32 273.148 32ZM273.194 23.0909L274.58 20.4545H276.148L274.376 23.0909H273.194ZM279.391 36.2727V24.2727H280.687V25.6591H280.846C280.944 25.5076 281.081 25.3144 281.255 25.0795C281.433 24.8409 281.687 24.6288 282.016 24.4432C282.35 24.2538 282.8 24.1591 283.369 24.1591C284.103 24.1591 284.751 24.3428 285.312 24.7102C285.872 25.0777 286.31 25.5985 286.624 26.2727C286.939 26.947 287.096 27.7424 287.096 28.6591C287.096 29.5833 286.939 30.3845 286.624 31.0625C286.31 31.7367 285.874 32.2595 285.317 32.6307C284.761 32.9981 284.119 33.1818 283.391 33.1818C282.831 33.1818 282.382 33.089 282.045 32.9034C281.708 32.714 281.448 32.5 281.266 32.2614C281.085 32.0189 280.944 31.8182 280.846 31.6591H280.732V36.2727H279.391ZM280.71 28.6364C280.71 29.2955 280.806 29.8769 280.999 30.3807C281.192 30.8807 281.475 31.2727 281.846 31.5568C282.217 31.8371 282.672 31.9773 283.21 31.9773C283.77 31.9773 284.238 31.8295 284.613 31.5341C284.992 31.2348 285.276 30.8333 285.465 30.3295C285.658 29.822 285.755 29.2576 285.755 28.6364C285.755 28.0227 285.66 27.4697 285.471 26.9773C285.285 26.4811 285.003 26.089 284.624 25.8011C284.249 25.5095 283.778 25.3636 283.21 25.3636C282.664 25.3636 282.206 25.5019 281.835 25.7784C281.463 26.0511 281.183 26.4337 280.994 26.9261C280.804 27.4148 280.71 27.9848 280.71 28.6364ZM289.141 33V24.2727H290.482V33H289.141ZM289.823 22.8182C289.562 22.8182 289.336 22.7292 289.147 22.5511C288.961 22.3731 288.869 22.1591 288.869 21.9091C288.869 21.6591 288.961 21.4451 289.147 21.267C289.336 21.089 289.562 21 289.823 21C290.085 21 290.308 21.089 290.494 21.267C290.683 21.4451 290.778 21.6591 290.778 21.9091C290.778 22.1591 290.683 22.3731 290.494 22.5511C290.308 22.7292 290.085 22.8182 289.823 22.8182ZM296.234 33.1818C295.506 33.1818 294.864 32.9981 294.308 32.6307C293.751 32.2595 293.315 31.7367 293.001 31.0625C292.686 30.3845 292.529 29.5833 292.529 28.6591C292.529 27.7424 292.686 26.947 293.001 26.2727C293.315 25.5985 293.753 25.0777 294.313 24.7102C294.874 24.3428 295.522 24.1591 296.256 24.1591C296.825 24.1591 297.273 24.2538 297.603 24.4432C297.936 24.6288 298.19 24.8409 298.364 25.0795C298.542 25.3144 298.681 25.5076 298.779 25.6591H298.893V21.3636H300.234V33H298.938V31.6591H298.779C298.681 31.8182 298.54 32.0189 298.359 32.2614C298.177 32.5 297.917 32.714 297.58 32.9034C297.243 33.089 296.794 33.1818 296.234 33.1818ZM296.415 31.9773C296.953 31.9773 297.408 31.8371 297.779 31.5568C298.15 31.2727 298.433 30.8807 298.626 30.3807C298.819 29.8769 298.915 29.2955 298.915 28.6364C298.915 27.9848 298.821 27.4148 298.631 26.9261C298.442 26.4337 298.162 26.0511 297.79 25.7784C297.419 25.5019 296.961 25.3636 296.415 25.3636C295.847 25.3636 295.374 25.5095 294.995 25.8011C294.62 26.089 294.338 26.4811 294.148 26.9773C293.963 27.4697 293.87 28.0227 293.87 28.6364C293.87 29.2576 293.965 29.822 294.154 30.3295C294.347 30.8333 294.631 31.2348 295.006 31.5341C295.385 31.8295 295.855 31.9773 296.415 31.9773ZM305.444 33.2045C304.891 33.2045 304.389 33.1004 303.938 32.892C303.487 32.6799 303.129 32.375 302.864 31.9773C302.599 31.5758 302.467 31.0909 302.467 30.5227C302.467 30.0227 302.565 29.6174 302.762 29.3068C302.959 28.9924 303.222 28.7462 303.552 28.5682C303.881 28.3902 304.245 28.2576 304.643 28.1705C305.044 28.0795 305.448 28.0076 305.853 27.9545C306.383 27.8864 306.813 27.8352 307.143 27.8011C307.476 27.7633 307.719 27.7008 307.87 27.6136C308.025 27.5265 308.103 27.375 308.103 27.1591V27.1136C308.103 26.553 307.95 26.1174 307.643 25.8068C307.34 25.4962 306.879 25.3409 306.262 25.3409C305.622 25.3409 305.12 25.4811 304.756 25.7614C304.393 26.0417 304.137 26.3409 303.989 26.6591L302.717 26.2045C302.944 25.6742 303.247 25.2614 303.626 24.9659C304.008 24.6667 304.425 24.4583 304.876 24.3409C305.33 24.2197 305.777 24.1591 306.217 24.1591C306.497 24.1591 306.819 24.1932 307.183 24.2614C307.55 24.3258 307.904 24.4602 308.245 24.6648C308.59 24.8693 308.876 25.178 309.103 25.5909C309.33 26.0038 309.444 26.5568 309.444 27.25V33H308.103V31.8182H308.035C307.944 32.0076 307.792 32.2102 307.58 32.4261C307.368 32.642 307.086 32.8258 306.734 32.9773C306.381 33.1288 305.951 33.2045 305.444 33.2045ZM305.648 32C306.179 32 306.626 31.8958 306.989 31.6875C307.357 31.4792 307.633 31.2102 307.819 30.8807C308.008 30.5511 308.103 30.2045 308.103 29.8409V28.6136C308.046 28.6818 307.921 28.7443 307.728 28.8011C307.539 28.8542 307.319 28.9015 307.069 28.9432C306.823 28.9811 306.582 29.0152 306.347 29.0455C306.116 29.072 305.929 29.0947 305.785 29.1136C305.436 29.1591 305.111 29.233 304.808 29.3352C304.508 29.4337 304.266 29.5833 304.08 29.7841C303.898 29.9811 303.808 30.25 303.808 30.5909C303.808 31.0568 303.98 31.4091 304.325 31.6477C304.673 31.8826 305.114 32 305.648 32ZM83.6832 55.1818C82.8423 55.1818 82.117 54.9962 81.5071 54.625C80.901 54.25 80.4332 53.7273 80.1037 53.0568C79.7779 52.3826 79.6151 51.5985 79.6151 50.7045C79.6151 49.8106 79.7779 49.0227 80.1037 48.3409C80.4332 47.6553 80.8916 47.1212 81.4787 46.7386C82.0696 46.3523 82.759 46.1591 83.5469 46.1591C84.0014 46.1591 84.4503 46.2348 84.8935 46.3864C85.3366 46.5379 85.7401 46.7841 86.1037 47.125C86.4673 47.4621 86.7571 47.9091 86.973 48.4659C87.1889 49.0227 87.2969 49.7083 87.2969 50.5227V51.0909H80.5696V49.9318H85.9332C85.9332 49.4394 85.8348 49 85.6378 48.6136C85.4446 48.2273 85.1681 47.9223 84.8082 47.6989C84.4522 47.4754 84.0317 47.3636 83.5469 47.3636C83.0128 47.3636 82.5507 47.4962 82.1605 47.7614C81.7741 48.0227 81.4768 48.3636 81.2685 48.7841C81.0601 49.2045 80.956 49.6553 80.956 50.1364V50.9091C80.956 51.5682 81.0696 52.1269 81.2969 52.5852C81.5279 53.0398 81.848 53.3864 82.2571 53.625C82.6662 53.8598 83.1416 53.9773 83.6832 53.9773C84.0355 53.9773 84.3537 53.928 84.6378 53.8295C84.9257 53.7273 85.1738 53.5758 85.3821 53.375C85.5904 53.1705 85.7514 52.9167 85.8651 52.6136L87.1605 52.9773C87.0241 53.4167 86.795 53.803 86.473 54.1364C86.151 54.4659 85.7533 54.7235 85.2798 54.9091C84.8063 55.0909 84.2741 55.1818 83.6832 55.1818ZM97.723 46.2727V47.4091H93.0185V46.2727H97.723ZM94.4276 55V45.0682C94.4276 44.5682 94.545 44.1515 94.7798 43.8182C95.0147 43.4848 95.3196 43.2348 95.6946 43.0682C96.0696 42.9015 96.4654 42.8182 96.8821 42.8182C97.2116 42.8182 97.4806 42.8447 97.6889 42.8977C97.8973 42.9508 98.0526 43 98.1548 43.0455L97.7685 44.2045C97.7003 44.1818 97.6056 44.1534 97.4844 44.1193C97.367 44.0852 97.2116 44.0682 97.0185 44.0682C96.5753 44.0682 96.2552 44.1799 96.0582 44.4034C95.8651 44.6269 95.7685 44.9545 95.7685 45.3864V55H94.4276ZM101.92 55.2045C101.367 55.2045 100.866 55.1004 100.415 54.892C99.964 54.6799 99.6061 54.375 99.3409 53.9773C99.0758 53.5758 98.9432 53.0909 98.9432 52.5227C98.9432 52.0227 99.0417 51.6174 99.2386 51.3068C99.4356 50.9924 99.6989 50.7462 100.028 50.5682C100.358 50.3902 100.722 50.2576 101.119 50.1705C101.521 50.0795 101.924 50.0076 102.33 49.9545C102.86 49.8864 103.29 49.8352 103.619 49.8011C103.953 49.7633 104.195 49.7008 104.347 49.6136C104.502 49.5265 104.58 49.375 104.58 49.1591V49.1136C104.58 48.553 104.426 48.1174 104.119 47.8068C103.816 47.4962 103.356 47.3409 102.739 47.3409C102.098 47.3409 101.597 47.4811 101.233 47.7614C100.869 48.0417 100.614 48.3409 100.466 48.6591L99.1932 48.2045C99.4205 47.6742 99.7235 47.2614 100.102 46.9659C100.485 46.6667 100.902 46.4583 101.352 46.3409C101.807 46.2197 102.254 46.1591 102.693 46.1591C102.973 46.1591 103.295 46.1932 103.659 46.2614C104.027 46.3258 104.381 46.4602 104.722 46.6648C105.066 46.8693 105.352 47.178 105.58 47.5909C105.807 48.0038 105.92 48.5568 105.92 49.25V55H104.58V53.8182H104.511C104.42 54.0076 104.269 54.2102 104.057 54.4261C103.845 54.642 103.563 54.8258 103.21 54.9773C102.858 55.1288 102.428 55.2045 101.92 55.2045ZM102.125 54C102.655 54 103.102 53.8958 103.466 53.6875C103.833 53.4792 104.11 53.2102 104.295 52.8807C104.485 52.5511 104.58 52.2045 104.58 51.8409V50.6136C104.523 50.6818 104.398 50.7443 104.205 50.8011C104.015 50.8542 103.795 50.9015 103.545 50.9432C103.299 50.9811 103.059 51.0152 102.824 51.0455C102.593 51.072 102.405 51.0947 102.261 51.1136C101.913 51.1591 101.587 51.233 101.284 51.3352C100.985 51.4337 100.742 51.5833 100.557 51.7841C100.375 51.9811 100.284 52.25 100.284 52.5909C100.284 53.0568 100.456 53.4091 100.801 53.6477C101.15 53.8826 101.591 54 102.125 54ZM102.17 45.0909L103.557 42.4545H105.125L103.352 45.0909H102.17ZM111.913 55.1818C111.095 55.1818 110.391 54.9886 109.8 54.6023C109.209 54.2159 108.754 53.6837 108.436 53.0057C108.118 52.3277 107.959 51.553 107.959 50.6818C107.959 49.7955 108.122 49.0133 108.447 48.3352C108.777 47.6534 109.235 47.1212 109.822 46.7386C110.413 46.3523 111.103 46.1591 111.891 46.1591C112.504 46.1591 113.057 46.2727 113.55 46.5C114.042 46.7273 114.446 47.0455 114.76 47.4545C115.074 47.8636 115.269 48.3409 115.345 48.8864H114.004C113.902 48.4886 113.675 48.1364 113.322 47.8295C112.974 47.5189 112.504 47.3636 111.913 47.3636C111.391 47.3636 110.932 47.5 110.538 47.7727C110.148 48.0417 109.843 48.4223 109.624 48.9148C109.408 49.4034 109.3 49.9773 109.3 50.6364C109.3 51.3106 109.406 51.8977 109.618 52.3977C109.834 52.8977 110.137 53.286 110.527 53.5625C110.921 53.839 111.383 53.9773 111.913 53.9773C112.262 53.9773 112.578 53.9167 112.862 53.7955C113.146 53.6742 113.387 53.5 113.584 53.2727C113.781 53.0455 113.921 52.7727 114.004 52.4545H115.345C115.269 52.9697 115.082 53.4337 114.783 53.8466C114.487 54.2557 114.095 54.5814 113.607 54.8239C113.122 55.0625 112.557 55.1818 111.913 55.1818ZM117.305 55V46.2727H118.646V55H117.305ZM117.987 44.8182C117.726 44.8182 117.5 44.7292 117.311 44.5511C117.125 44.3731 117.033 44.1591 117.033 43.9091C117.033 43.6591 117.125 43.4451 117.311 43.267C117.5 43.089 117.726 43 117.987 43C118.249 43 118.472 43.089 118.658 43.267C118.847 43.4451 118.942 43.6591 118.942 43.9091C118.942 44.1591 118.847 44.3731 118.658 44.5511C118.472 44.7292 118.249 44.8182 117.987 44.8182ZM122.443 43.3636V55H121.102V43.3636H122.443ZM132.945 55.1818C132.126 55.1818 131.422 54.9886 130.831 54.6023C130.24 54.2159 129.786 53.6837 129.467 53.0057C129.149 52.3277 128.99 51.553 128.99 50.6818C128.99 49.7955 129.153 49.0133 129.479 48.3352C129.808 47.6534 130.267 47.1212 130.854 46.7386C131.445 46.3523 132.134 46.1591 132.922 46.1591C133.536 46.1591 134.089 46.2727 134.581 46.5C135.073 46.7273 135.477 47.0455 135.791 47.4545C136.106 47.8636 136.301 48.3409 136.376 48.8864H135.036C134.933 48.4886 134.706 48.1364 134.354 47.8295C134.005 47.5189 133.536 47.3636 132.945 47.3636C132.422 47.3636 131.964 47.5 131.57 47.7727C131.179 48.0417 130.875 48.4223 130.655 48.9148C130.439 49.4034 130.331 49.9773 130.331 50.6364C130.331 51.3106 130.437 51.8977 130.649 52.3977C130.865 52.8977 131.168 53.286 131.558 53.5625C131.952 53.839 132.414 53.9773 132.945 53.9773C133.293 53.9773 133.609 53.9167 133.893 53.7955C134.178 53.6742 134.418 53.5 134.615 53.2727C134.812 53.0455 134.952 52.7727 135.036 52.4545H136.376C136.301 52.9697 136.113 53.4337 135.814 53.8466C135.518 54.2557 135.126 54.5814 134.638 54.8239C134.153 55.0625 133.589 55.1818 132.945 55.1818ZM141.882 55.1818C141.094 55.1818 140.403 54.9943 139.808 54.6193C139.217 54.2443 138.755 53.7197 138.422 53.0455C138.092 52.3712 137.928 51.5833 137.928 50.6818C137.928 49.7727 138.092 48.9792 138.422 48.3011C138.755 47.6231 139.217 47.0966 139.808 46.7216C140.403 46.3466 141.094 46.1591 141.882 46.1591C142.67 46.1591 143.359 46.3466 143.95 46.7216C144.545 47.0966 145.007 47.6231 145.337 48.3011C145.67 48.9792 145.837 49.7727 145.837 50.6818C145.837 51.5833 145.67 52.3712 145.337 53.0455C145.007 53.7197 144.545 54.2443 143.95 54.6193C143.359 54.9943 142.67 55.1818 141.882 55.1818ZM141.882 53.9773C142.481 53.9773 142.973 53.8239 143.359 53.517C143.746 53.2102 144.032 52.8068 144.217 52.3068C144.403 51.8068 144.496 51.2652 144.496 50.6818C144.496 50.0985 144.403 49.5549 144.217 49.0511C144.032 48.5473 143.746 48.1402 143.359 47.8295C142.973 47.5189 142.481 47.3636 141.882 47.3636C141.284 47.3636 140.791 47.5189 140.405 47.8295C140.018 48.1402 139.732 48.5473 139.547 49.0511C139.361 49.5549 139.268 50.0985 139.268 50.6818C139.268 51.2652 139.361 51.8068 139.547 52.3068C139.732 52.8068 140.018 53.2102 140.405 53.517C140.791 53.8239 141.284 53.9773 141.882 53.9773ZM147.884 55V46.2727H149.179V47.6364H149.293C149.474 47.1705 149.768 46.8087 150.173 46.5511C150.579 46.2898 151.065 46.1591 151.634 46.1591C152.209 46.1591 152.688 46.2898 153.071 46.5511C153.457 46.8087 153.759 47.1705 153.974 47.6364H154.065C154.289 47.1856 154.624 46.8277 155.071 46.5625C155.518 46.2936 156.054 46.1591 156.679 46.1591C157.459 46.1591 158.098 46.4034 158.594 46.892C159.09 47.3769 159.338 48.1326 159.338 49.1591V55H157.997V49.1591C157.997 48.5152 157.821 48.0549 157.469 47.7784C157.116 47.5019 156.702 47.3636 156.224 47.3636C155.611 47.3636 155.135 47.5492 154.798 47.9205C154.461 48.2879 154.293 48.7538 154.293 49.3182V55H152.929V49.0227C152.929 48.5265 152.768 48.1269 152.446 47.8239C152.124 47.517 151.709 47.3636 151.202 47.3636C150.853 47.3636 150.527 47.4564 150.224 47.642C149.925 47.8277 149.683 48.0852 149.497 48.4148C149.315 48.7405 149.224 49.1174 149.224 49.5455V55H147.884ZM166.29 58.2727V46.2727H167.585V47.6591H167.744C167.843 47.5076 167.979 47.3144 168.153 47.0795C168.331 46.8409 168.585 46.6288 168.915 46.4432C169.248 46.2538 169.699 46.1591 170.267 46.1591C171.002 46.1591 171.65 46.3428 172.21 46.7102C172.771 47.0777 173.208 47.5985 173.523 48.2727C173.837 48.947 173.994 49.7424 173.994 50.6591C173.994 51.5833 173.837 52.3845 173.523 53.0625C173.208 53.7367 172.773 54.2595 172.216 54.6307C171.659 54.9981 171.017 55.1818 170.29 55.1818C169.729 55.1818 169.28 55.089 168.943 54.9034C168.606 54.714 168.347 54.5 168.165 54.2614C167.983 54.0189 167.843 53.8182 167.744 53.6591H167.631V58.2727H166.29ZM167.608 50.6364C167.608 51.2955 167.705 51.8769 167.898 52.3807C168.091 52.8807 168.373 53.2727 168.744 53.5568C169.116 53.8371 169.57 53.9773 170.108 53.9773C170.669 53.9773 171.136 53.8295 171.511 53.5341C171.89 53.2348 172.174 52.8333 172.364 52.3295C172.557 51.822 172.653 51.2576 172.653 50.6364C172.653 50.0227 172.559 49.4697 172.369 48.9773C172.184 48.4811 171.902 48.089 171.523 47.8011C171.148 47.5095 170.676 47.3636 170.108 47.3636C169.563 47.3636 169.104 47.5019 168.733 47.7784C168.362 48.0511 168.081 48.4337 167.892 48.9261C167.703 49.4148 167.608 49.9848 167.608 50.6364ZM176.04 55V46.2727H177.335V47.5909H177.426C177.585 47.1591 177.873 46.8087 178.29 46.5398C178.706 46.2708 179.176 46.1364 179.699 46.1364C179.797 46.1364 179.92 46.1383 180.068 46.142C180.216 46.1458 180.328 46.1515 180.403 46.1591V47.5227C180.358 47.5114 180.254 47.4943 180.091 47.4716C179.932 47.4451 179.763 47.4318 179.585 47.4318C179.161 47.4318 178.782 47.5208 178.449 47.6989C178.119 47.8731 177.858 48.1155 177.665 48.4261C177.475 48.733 177.381 49.0833 177.381 49.4773V55H176.04ZM185.273 55.1818C184.485 55.1818 183.794 54.9943 183.199 54.6193C182.608 54.2443 182.146 53.7197 181.812 53.0455C181.483 52.3712 181.318 51.5833 181.318 50.6818C181.318 49.7727 181.483 48.9792 181.812 48.3011C182.146 47.6231 182.608 47.0966 183.199 46.7216C183.794 46.3466 184.485 46.1591 185.273 46.1591C186.061 46.1591 186.75 46.3466 187.341 46.7216C187.936 47.0966 188.398 47.6231 188.727 48.3011C189.061 48.9792 189.227 49.7727 189.227 50.6818C189.227 51.5833 189.061 52.3712 188.727 53.0455C188.398 53.7197 187.936 54.2443 187.341 54.6193C186.75 54.9943 186.061 55.1818 185.273 55.1818ZM185.273 53.9773C185.871 53.9773 186.364 53.8239 186.75 53.517C187.136 53.2102 187.422 52.8068 187.608 52.3068C187.794 51.8068 187.886 51.2652 187.886 50.6818C187.886 50.0985 187.794 49.5549 187.608 49.0511C187.422 48.5473 187.136 48.1402 186.75 47.8295C186.364 47.5189 185.871 47.3636 185.273 47.3636C184.674 47.3636 184.182 47.5189 183.795 47.8295C183.409 48.1402 183.123 48.5473 182.938 49.0511C182.752 49.5549 182.659 50.0985 182.659 50.6818C182.659 51.2652 182.752 51.8068 182.938 52.3068C183.123 52.8068 183.409 53.2102 183.795 53.517C184.182 53.8239 184.674 53.9773 185.273 53.9773ZM195.161 46.2727V47.4091H190.456V46.2727H195.161ZM191.865 55V45.0682C191.865 44.5682 191.982 44.1515 192.217 43.8182C192.452 43.4848 192.757 43.2348 193.132 43.0682C193.507 42.9015 193.903 42.8182 194.32 42.8182C194.649 42.8182 194.918 42.8447 195.126 42.8977C195.335 42.9508 195.49 43 195.592 43.0455L195.206 44.2045C195.138 44.1818 195.043 44.1534 194.922 44.1193C194.804 44.0852 194.649 44.0682 194.456 44.0682C194.013 44.0682 193.693 44.1799 193.496 44.4034C193.303 44.6269 193.206 44.9545 193.206 45.3864V55H191.865ZM197.04 55V46.2727H198.381V55H197.04ZM197.722 44.8182C197.46 44.8182 197.235 44.7292 197.045 44.5511C196.86 44.3731 196.767 44.1591 196.767 43.9091C196.767 43.6591 196.86 43.4451 197.045 43.267C197.235 43.089 197.46 43 197.722 43C197.983 43 198.206 43.089 198.392 43.267C198.581 43.4451 198.676 43.6591 198.676 43.9091C198.676 44.1591 198.581 44.3731 198.392 44.5511C198.206 44.7292 197.983 44.8182 197.722 44.8182ZM207.018 48.2273L205.814 48.5682C205.738 48.3674 205.626 48.1723 205.479 47.983C205.335 47.7898 205.138 47.6307 204.888 47.5057C204.638 47.3807 204.318 47.3182 203.928 47.3182C203.393 47.3182 202.948 47.4413 202.592 47.6875C202.24 47.9299 202.064 48.2386 202.064 48.6136C202.064 48.947 202.185 49.2102 202.428 49.4034C202.67 49.5966 203.049 49.7576 203.564 49.8864L204.859 50.2045C205.64 50.3939 206.221 50.6837 206.604 51.0739C206.986 51.4602 207.178 51.9583 207.178 52.5682C207.178 53.0682 207.034 53.5152 206.746 53.9091C206.462 54.303 206.064 54.6136 205.553 54.8409C205.041 55.0682 204.446 55.1818 203.768 55.1818C202.878 55.1818 202.142 54.9886 201.558 54.6023C200.975 54.2159 200.606 53.6515 200.45 52.9091L201.723 52.5909C201.844 53.0606 202.073 53.4129 202.411 53.6477C202.751 53.8826 203.196 54 203.746 54C204.371 54 204.867 53.8674 205.234 53.6023C205.606 53.3333 205.791 53.0114 205.791 52.6364C205.791 52.3333 205.685 52.0795 205.473 51.875C205.261 51.6667 204.935 51.5114 204.496 51.4091L203.041 51.0682C202.242 50.8788 201.655 50.5852 201.28 50.1875C200.909 49.786 200.723 49.2841 200.723 48.6818C200.723 48.1894 200.861 47.7538 201.138 47.375C201.418 46.9962 201.799 46.6989 202.28 46.483C202.765 46.267 203.314 46.1591 203.928 46.1591C204.791 46.1591 205.469 46.3485 205.962 46.7273C206.458 47.1061 206.81 47.6061 207.018 48.2273ZM215.378 48.2273L214.173 48.5682C214.098 48.3674 213.986 48.1723 213.838 47.983C213.694 47.7898 213.497 47.6307 213.247 47.5057C212.997 47.3807 212.677 47.3182 212.287 47.3182C211.753 47.3182 211.308 47.4413 210.952 47.6875C210.599 47.9299 210.423 48.2386 210.423 48.6136C210.423 48.947 210.545 49.2102 210.787 49.4034C211.029 49.5966 211.408 49.7576 211.923 49.8864L213.219 50.2045C213.999 50.3939 214.58 50.6837 214.963 51.0739C215.346 51.4602 215.537 51.9583 215.537 52.5682C215.537 53.0682 215.393 53.5152 215.105 53.9091C214.821 54.303 214.423 54.6136 213.912 54.8409C213.401 55.0682 212.806 55.1818 212.128 55.1818C211.238 55.1818 210.501 54.9886 209.918 54.6023C209.334 54.2159 208.965 53.6515 208.81 52.9091L210.082 52.5909C210.204 53.0606 210.433 53.4129 210.77 53.6477C211.111 53.8826 211.556 54 212.105 54C212.73 54 213.226 53.8674 213.594 53.6023C213.965 53.3333 214.151 53.0114 214.151 52.6364C214.151 52.3333 214.045 52.0795 213.832 51.875C213.62 51.6667 213.295 51.5114 212.855 51.4091L211.401 51.0682C210.601 50.8788 210.014 50.5852 209.639 50.1875C209.268 49.786 209.082 49.2841 209.082 48.6818C209.082 48.1894 209.221 47.7538 209.497 47.375C209.777 46.9962 210.158 46.6989 210.639 46.483C211.124 46.267 211.673 46.1591 212.287 46.1591C213.151 46.1591 213.829 46.3485 214.321 46.7273C214.817 47.1061 215.17 47.6061 215.378 48.2273ZM217.555 55V46.2727H218.896V55H217.555ZM218.237 44.8182C217.976 44.8182 217.75 44.7292 217.561 44.5511C217.375 44.3731 217.283 44.1591 217.283 43.9091C217.283 43.6591 217.375 43.4451 217.561 43.267C217.75 43.089 217.976 43 218.237 43C218.499 43 218.722 43.089 218.908 43.267C219.097 43.4451 219.192 43.6591 219.192 43.9091C219.192 44.1591 219.097 44.3731 218.908 44.5511C218.722 44.7292 218.499 44.8182 218.237 44.8182ZM224.898 55.1818C224.11 55.1818 223.419 54.9943 222.824 54.6193C222.233 54.2443 221.771 53.7197 221.438 53.0455C221.108 52.3712 220.943 51.5833 220.943 50.6818C220.943 49.7727 221.108 48.9792 221.438 48.3011C221.771 47.6231 222.233 47.0966 222.824 46.7216C223.419 46.3466 224.11 46.1591 224.898 46.1591C225.686 46.1591 226.375 46.3466 226.966 46.7216C227.561 47.0966 228.023 47.6231 228.352 48.3011C228.686 48.9792 228.852 49.7727 228.852 50.6818C228.852 51.5833 228.686 52.3712 228.352 53.0455C228.023 53.7197 227.561 54.2443 226.966 54.6193C226.375 54.9943 225.686 55.1818 224.898 55.1818ZM224.898 53.9773C225.496 53.9773 225.989 53.8239 226.375 53.517C226.761 53.2102 227.047 52.8068 227.233 52.3068C227.419 51.8068 227.511 51.2652 227.511 50.6818C227.511 50.0985 227.419 49.5549 227.233 49.0511C227.047 48.5473 226.761 48.1402 226.375 47.8295C225.989 47.5189 225.496 47.3636 224.898 47.3636C224.299 47.3636 223.807 47.5189 223.42 47.8295C223.034 48.1402 222.748 48.5473 222.562 49.0511C222.377 49.5549 222.284 50.0985 222.284 50.6818C222.284 51.2652 222.377 51.8068 222.562 52.3068C222.748 52.8068 223.034 53.2102 223.42 53.517C223.807 53.8239 224.299 53.9773 224.898 53.9773ZM232.24 49.75V55H230.899V46.2727H232.195V47.6364H232.308C232.513 47.1932 232.823 46.8371 233.24 46.5682C233.657 46.2955 234.195 46.1591 234.854 46.1591C235.445 46.1591 235.962 46.2803 236.405 46.5227C236.848 46.7614 237.193 47.125 237.439 47.6136C237.685 48.0985 237.808 48.7121 237.808 49.4545V55H236.467V49.5455C236.467 48.8598 236.289 48.3258 235.933 47.9432C235.577 47.5568 235.089 47.3636 234.467 47.3636C234.039 47.3636 233.657 47.4564 233.32 47.642C232.986 47.8277 232.723 48.0985 232.53 48.4545C232.337 48.8106 232.24 49.2424 232.24 49.75ZM242.827 55.2045C242.274 55.2045 241.772 55.1004 241.321 54.892C240.87 54.6799 240.512 54.375 240.247 53.9773C239.982 53.5758 239.849 53.0909 239.849 52.5227C239.849 52.0227 239.948 51.6174 240.145 51.3068C240.342 50.9924 240.605 50.7462 240.935 50.5682C241.264 50.3902 241.628 50.2576 242.026 50.1705C242.427 50.0795 242.83 50.0076 243.236 49.9545C243.766 49.8864 244.196 49.8352 244.526 49.8011C244.859 49.7633 245.101 49.7008 245.253 49.6136C245.408 49.5265 245.486 49.375 245.486 49.1591V49.1136C245.486 48.553 245.332 48.1174 245.026 47.8068C244.723 47.4962 244.262 47.3409 243.645 47.3409C243.005 47.3409 242.503 47.4811 242.139 47.7614C241.776 48.0417 241.52 48.3409 241.372 48.6591L240.099 48.2045C240.327 47.6742 240.63 47.2614 241.009 46.9659C241.391 46.6667 241.808 46.4583 242.259 46.3409C242.713 46.2197 243.16 46.1591 243.599 46.1591C243.88 46.1591 244.202 46.1932 244.565 46.2614C244.933 46.3258 245.287 46.4602 245.628 46.6648C245.973 46.8693 246.259 47.178 246.486 47.5909C246.713 48.0038 246.827 48.5568 246.827 49.25V55H245.486V53.8182H245.418C245.327 54.0076 245.175 54.2102 244.963 54.4261C244.751 54.642 244.469 54.8258 244.116 54.9773C243.764 55.1288 243.334 55.2045 242.827 55.2045ZM243.031 54C243.562 54 244.009 53.8958 244.372 53.6875C244.74 53.4792 245.016 53.2102 245.202 52.8807C245.391 52.5511 245.486 52.2045 245.486 51.8409V50.6136C245.429 50.6818 245.304 50.7443 245.111 50.8011C244.921 50.8542 244.702 50.9015 244.452 50.9432C244.205 50.9811 243.965 51.0152 243.73 51.0455C243.499 51.072 243.312 51.0947 243.168 51.1136C242.819 51.1591 242.493 51.233 242.19 51.3352C241.891 51.4337 241.649 51.5833 241.463 51.7841C241.281 51.9811 241.19 52.25 241.19 52.5909C241.19 53.0568 241.363 53.4091 241.707 53.6477C242.056 53.8826 242.497 54 243.031 54ZM249.274 55V46.2727H250.615V55H249.274ZM249.956 44.8182C249.695 44.8182 249.469 44.7292 249.28 44.5511C249.094 44.3731 249.001 44.1591 249.001 43.9091C249.001 43.6591 249.094 43.4451 249.28 43.267C249.469 43.089 249.695 43 249.956 43C250.217 43 250.441 43.089 250.626 43.267C250.816 43.4451 250.911 43.6591 250.911 43.9091C250.911 44.1591 250.816 44.3731 250.626 44.5511C250.441 44.7292 250.217 44.8182 249.956 44.8182ZM259.253 48.2273L258.048 48.5682C257.973 48.3674 257.861 48.1723 257.713 47.983C257.569 47.7898 257.372 47.6307 257.122 47.5057C256.872 47.3807 256.552 47.3182 256.162 47.3182C255.628 47.3182 255.183 47.4413 254.827 47.6875C254.474 47.9299 254.298 48.2386 254.298 48.6136C254.298 48.947 254.42 49.2102 254.662 49.4034C254.904 49.5966 255.283 49.7576 255.798 49.8864L257.094 50.2045C257.874 50.3939 258.455 50.6837 258.838 51.0739C259.221 51.4602 259.412 51.9583 259.412 52.5682C259.412 53.0682 259.268 53.5152 258.98 53.9091C258.696 54.303 258.298 54.6136 257.787 54.8409C257.276 55.0682 256.681 55.1818 256.003 55.1818C255.113 55.1818 254.376 54.9886 253.793 54.6023C253.209 54.2159 252.84 53.6515 252.685 52.9091L253.957 52.5909C254.079 53.0606 254.308 53.4129 254.645 53.6477C254.986 53.8826 255.431 54 255.98 54C256.605 54 257.101 53.8674 257.469 53.6023C257.84 53.3333 258.026 53.0114 258.026 52.6364C258.026 52.3333 257.92 52.0795 257.707 51.875C257.495 51.6667 257.17 51.5114 256.73 51.4091L255.276 51.0682C254.476 50.8788 253.889 50.5852 253.514 50.1875C253.143 49.786 252.957 49.2841 252.957 48.6818C252.957 48.1894 253.096 47.7538 253.372 47.375C253.652 46.9962 254.033 46.6989 254.514 46.483C254.999 46.267 255.548 46.1591 256.162 46.1591C257.026 46.1591 257.704 46.3485 258.196 46.7273C258.692 47.1061 259.045 47.6061 259.253 48.2273ZM49.4645 77.1818C48.6236 77.1818 47.8982 76.9962 47.2884 76.625C46.6823 76.25 46.2145 75.7273 45.8849 75.0568C45.5592 74.3826 45.3963 73.5985 45.3963 72.7045C45.3963 71.8106 45.5592 71.0227 45.8849 70.3409C46.2145 69.6553 46.6728 69.1212 47.2599 68.7386C47.8509 68.3523 48.5402 68.1591 49.3281 68.1591C49.7827 68.1591 50.2315 68.2348 50.6747 68.3864C51.1179 68.5379 51.5213 68.7841 51.8849 69.125C52.2486 69.4621 52.5384 69.9091 52.7543 70.4659C52.9702 71.0227 53.0781 71.7083 53.0781 72.5227V73.0909H46.3509V71.9318H51.7145C51.7145 71.4394 51.616 71 51.419 70.6136C51.2259 70.2273 50.9493 69.9223 50.5895 69.6989C50.2334 69.4754 49.813 69.3636 49.3281 69.3636C48.794 69.3636 48.3319 69.4962 47.9418 69.7614C47.5554 70.0227 47.258 70.3636 47.0497 70.7841C46.8414 71.2045 46.7372 71.6553 46.7372 72.1364V72.9091C46.7372 73.5682 46.8509 74.1269 47.0781 74.5852C47.3092 75.0398 47.6293 75.3864 48.0384 75.625C48.4474 75.8598 48.9228 75.9773 49.4645 75.9773C49.8168 75.9773 50.1349 75.928 50.419 75.8295C50.7069 75.7273 50.955 75.5758 51.1634 75.375C51.3717 75.1705 51.5327 74.9167 51.6463 74.6136L52.9418 74.9773C52.8054 75.4167 52.5762 75.803 52.2543 76.1364C51.9323 76.4659 51.5346 76.7235 51.0611 76.9091C50.5876 77.0909 50.0554 77.1818 49.4645 77.1818ZM61.2997 70.2273L60.0952 70.5682C60.0194 70.3674 59.9077 70.1723 59.7599 69.983C59.616 69.7898 59.419 69.6307 59.169 69.5057C58.919 69.3807 58.599 69.3182 58.2088 69.3182C57.6747 69.3182 57.2296 69.4413 56.8736 69.6875C56.5213 69.9299 56.3452 70.2386 56.3452 70.6136C56.3452 70.947 56.4664 71.2102 56.7088 71.4034C56.9512 71.5966 57.33 71.7576 57.8452 71.8864L59.1406 72.2045C59.9209 72.3939 60.5024 72.6837 60.8849 73.0739C61.2675 73.4602 61.4588 73.9583 61.4588 74.5682C61.4588 75.0682 61.3149 75.5152 61.027 75.9091C60.7429 76.303 60.3452 76.6136 59.8338 76.8409C59.3224 77.0682 58.7277 77.1818 58.0497 77.1818C57.1596 77.1818 56.4228 76.9886 55.8395 76.6023C55.2562 76.2159 54.8868 75.6515 54.7315 74.9091L56.0043 74.5909C56.1255 75.0606 56.3546 75.4129 56.6918 75.6477C57.0327 75.8826 57.4777 76 58.027 76C58.652 76 59.1482 75.8674 59.5156 75.6023C59.8868 75.3333 60.0724 75.0114 60.0724 74.6364C60.0724 74.3333 59.9664 74.0795 59.7543 73.875C59.5421 73.6667 59.2164 73.5114 58.777 73.4091L57.3224 73.0682C56.5232 72.8788 55.9361 72.5852 55.5611 72.1875C55.1899 71.786 55.0043 71.2841 55.0043 70.6818C55.0043 70.1894 55.1425 69.7538 55.419 69.375C55.6993 68.9962 56.08 68.6989 56.5611 68.483C57.0459 68.267 57.5952 68.1591 58.2088 68.1591C59.0724 68.1591 59.7505 68.3485 60.2429 68.7273C60.7391 69.1061 61.0914 69.6061 61.2997 70.2273ZM63.4773 80.2727V68.2727H64.7727V69.6591H64.9318C65.0303 69.5076 65.1667 69.3144 65.3409 69.0795C65.5189 68.8409 65.7727 68.6288 66.1023 68.4432C66.4356 68.2538 66.8864 68.1591 67.4545 68.1591C68.1894 68.1591 68.8371 68.3428 69.3977 68.7102C69.9583 69.0777 70.3958 69.5985 70.7102 70.2727C71.0246 70.947 71.1818 71.7424 71.1818 72.6591C71.1818 73.5833 71.0246 74.3845 70.7102 75.0625C70.3958 75.7367 69.9602 76.2595 69.4034 76.6307C68.8466 76.9981 68.2045 77.1818 67.4773 77.1818C66.9167 77.1818 66.4678 77.089 66.1307 76.9034C65.7936 76.714 65.5341 76.5 65.3523 76.2614C65.1705 76.0189 65.0303 75.8182 64.9318 75.6591H64.8182V80.2727H63.4773ZM64.7955 72.6364C64.7955 73.2955 64.892 73.8769 65.0852 74.3807C65.2784 74.8807 65.5606 75.2727 65.9318 75.5568C66.303 75.8371 66.7576 75.9773 67.2955 75.9773C67.8561 75.9773 68.3239 75.8295 68.6989 75.5341C69.0777 75.2348 69.3617 74.8333 69.5511 74.3295C69.7443 73.822 69.8409 73.2576 69.8409 72.6364C69.8409 72.0227 69.7462 71.4697 69.5568 70.9773C69.3712 70.4811 69.089 70.089 68.7102 69.8011C68.3352 69.5095 67.8636 69.3636 67.2955 69.3636C66.75 69.3636 66.2917 69.5019 65.9205 69.7784C65.5492 70.0511 65.2689 70.4337 65.0795 70.9261C64.8902 71.4148 64.7955 71.9848 64.7955 72.6364ZM76.8864 77.1818C76.0455 77.1818 75.3201 76.9962 74.7102 76.625C74.1042 76.25 73.6364 75.7273 73.3068 75.0568C72.9811 74.3826 72.8182 73.5985 72.8182 72.7045C72.8182 71.8106 72.9811 71.0227 73.3068 70.3409C73.6364 69.6553 74.0947 69.1212 74.6818 68.7386C75.2727 68.3523 75.9621 68.1591 76.75 68.1591C77.2045 68.1591 77.6534 68.2348 78.0966 68.3864C78.5398 68.5379 78.9432 68.7841 79.3068 69.125C79.6705 69.4621 79.9602 69.9091 80.1761 70.4659C80.392 71.0227 80.5 71.7083 80.5 72.5227V73.0909H73.7727V71.9318H79.1364C79.1364 71.4394 79.0379 71 78.8409 70.6136C78.6477 70.2273 78.3712 69.9223 78.0114 69.6989C77.6553 69.4754 77.2348 69.3636 76.75 69.3636C76.2159 69.3636 75.7538 69.4962 75.3636 69.7614C74.9773 70.0227 74.6799 70.3636 74.4716 70.7841C74.2633 71.2045 74.1591 71.6553 74.1591 72.1364V72.9091C74.1591 73.5682 74.2727 74.1269 74.5 74.5852C74.7311 75.0398 75.0511 75.3864 75.4602 75.625C75.8693 75.8598 76.3447 75.9773 76.8864 75.9773C77.2386 75.9773 77.5568 75.928 77.8409 75.8295C78.1288 75.7273 78.3769 75.5758 78.5852 75.375C78.7936 75.1705 78.9545 74.9167 79.0682 74.6136L80.3636 74.9773C80.2273 75.4167 79.9981 75.803 79.6761 76.1364C79.3542 76.4659 78.9564 76.7235 78.483 76.9091C78.0095 77.0909 77.4773 77.1818 76.8864 77.1818ZM86.0852 77.1818C85.267 77.1818 84.5625 76.9886 83.9716 76.6023C83.3807 76.2159 82.9261 75.6837 82.608 75.0057C82.2898 74.3277 82.1307 73.553 82.1307 72.6818C82.1307 71.7955 82.2936 71.0133 82.6193 70.3352C82.9489 69.6534 83.4072 69.1212 83.9943 68.7386C84.5852 68.3523 85.2746 68.1591 86.0625 68.1591C86.6761 68.1591 87.2292 68.2727 87.7216 68.5C88.214 68.7273 88.6174 69.0455 88.9318 69.4545C89.2462 69.8636 89.4413 70.3409 89.517 70.8864H88.1761C88.0739 70.4886 87.8466 70.1364 87.4943 69.8295C87.1458 69.5189 86.6761 69.3636 86.0852 69.3636C85.5625 69.3636 85.1042 69.5 84.7102 69.7727C84.3201 70.0417 84.0152 70.4223 83.7955 70.9148C83.5795 71.4034 83.4716 71.9773 83.4716 72.6364C83.4716 73.3106 83.5777 73.8977 83.7898 74.3977C84.0057 74.8977 84.3087 75.286 84.6989 75.5625C85.0928 75.839 85.5549 75.9773 86.0852 75.9773C86.4337 75.9773 86.75 75.9167 87.0341 75.7955C87.3182 75.6742 87.5587 75.5 87.7557 75.2727C87.9527 75.0455 88.0928 74.7727 88.1761 74.4545H89.517C89.4413 74.9697 89.2538 75.4337 88.9545 75.8466C88.6591 76.2557 88.267 76.5814 87.7784 76.8239C87.2936 77.0625 86.7292 77.1818 86.0852 77.1818ZM91.4773 77V68.2727H92.8182V77H91.4773ZM92.1591 66.8182C91.8977 66.8182 91.6723 66.7292 91.483 66.5511C91.2973 66.3731 91.2045 66.1591 91.2045 65.9091C91.2045 65.6591 91.2973 65.4451 91.483 65.267C91.6723 65.089 91.8977 65 92.1591 65C92.4205 65 92.6439 65.089 92.8295 65.267C93.0189 65.4451 93.1136 65.6591 93.1136 65.9091C93.1136 66.1591 93.0189 66.3731 92.8295 66.5511C92.6439 66.7292 92.4205 66.8182 92.1591 66.8182ZM97.8423 77.2045C97.2893 77.2045 96.7874 77.1004 96.3366 76.892C95.8859 76.6799 95.5279 76.375 95.2628 75.9773C94.9976 75.5758 94.8651 75.0909 94.8651 74.5227C94.8651 74.0227 94.9635 73.6174 95.1605 73.3068C95.3575 72.9924 95.6207 72.7462 95.9503 72.5682C96.2798 72.3902 96.6435 72.2576 97.0412 72.1705C97.4427 72.0795 97.8461 72.0076 98.2514 71.9545C98.7817 71.8864 99.2116 71.8352 99.5412 71.8011C99.8745 71.7633 100.117 71.7008 100.268 71.6136C100.424 71.5265 100.501 71.375 100.501 71.1591V71.1136C100.501 70.553 100.348 70.1174 100.041 69.8068C99.7382 69.4962 99.2779 69.3409 98.6605 69.3409C98.0204 69.3409 97.5185 69.4811 97.1548 69.7614C96.7912 70.0417 96.5355 70.3409 96.3878 70.6591L95.1151 70.2045C95.3423 69.6742 95.6454 69.2614 96.0241 68.9659C96.4067 68.6667 96.8234 68.4583 97.2741 68.3409C97.7287 68.2197 98.1757 68.1591 98.6151 68.1591C98.8954 68.1591 99.2173 68.1932 99.581 68.2614C99.9484 68.3258 100.303 68.4602 100.643 68.6648C100.988 68.8693 101.274 69.178 101.501 69.5909C101.729 70.0038 101.842 70.5568 101.842 71.25V77H100.501V75.8182H100.433C100.342 76.0076 100.191 76.2102 99.9787 76.4261C99.7666 76.642 99.4844 76.8258 99.1321 76.9773C98.7798 77.1288 98.3499 77.2045 97.8423 77.2045ZM98.0469 76C98.5772 76 99.0241 75.8958 99.3878 75.6875C99.7552 75.4792 100.032 75.2102 100.217 74.8807C100.407 74.5511 100.501 74.2045 100.501 73.8409V72.6136C100.445 72.6818 100.32 72.7443 100.126 72.8011C99.937 72.8542 99.7173 72.9015 99.4673 72.9432C99.2211 72.9811 98.9806 73.0152 98.7457 73.0455C98.5147 73.072 98.3272 73.0947 98.1832 73.1136C97.8348 73.1591 97.509 73.233 97.206 73.3352C96.9067 73.4337 96.6643 73.5833 96.4787 73.7841C96.2969 73.9811 96.206 74.25 96.206 74.5909C96.206 75.0568 96.3783 75.4091 96.723 75.6477C97.0715 75.8826 97.5128 76 98.0469 76ZM105.631 65.3636V77H104.29V65.3636H105.631ZM108.087 77V68.2727H109.428V77H108.087ZM108.768 66.8182C108.507 66.8182 108.282 66.7292 108.092 66.5511C107.907 66.3731 107.814 66.1591 107.814 65.9091C107.814 65.6591 107.907 65.4451 108.092 65.267C108.282 65.089 108.507 65 108.768 65C109.03 65 109.253 65.089 109.439 65.267C109.628 65.4451 109.723 65.6591 109.723 65.9091C109.723 66.1591 109.628 66.3731 109.439 66.5511C109.253 66.7292 109.03 66.8182 108.768 66.8182ZM111.634 77V75.9773L116.588 69.6136V69.5227H111.793V68.2727H118.315V69.3409L113.497 75.6591V75.75H118.474V77H111.634ZM123.108 77.2045C122.555 77.2045 122.053 77.1004 121.602 76.892C121.152 76.6799 120.794 76.375 120.528 75.9773C120.263 75.5758 120.131 75.0909 120.131 74.5227C120.131 74.0227 120.229 73.6174 120.426 73.3068C120.623 72.9924 120.886 72.7462 121.216 72.5682C121.545 72.3902 121.909 72.2576 122.307 72.1705C122.708 72.0795 123.112 72.0076 123.517 71.9545C124.047 71.8864 124.477 71.8352 124.807 71.8011C125.14 71.7633 125.383 71.7008 125.534 71.6136C125.689 71.5265 125.767 71.375 125.767 71.1591V71.1136C125.767 70.553 125.614 70.1174 125.307 69.8068C125.004 69.4962 124.544 69.3409 123.926 69.3409C123.286 69.3409 122.784 69.4811 122.42 69.7614C122.057 70.0417 121.801 70.3409 121.653 70.6591L120.381 70.2045C120.608 69.6742 120.911 69.2614 121.29 68.9659C121.672 68.6667 122.089 68.4583 122.54 68.3409C122.994 68.2197 123.441 68.1591 123.881 68.1591C124.161 68.1591 124.483 68.1932 124.847 68.2614C125.214 68.3258 125.568 68.4602 125.909 68.6648C126.254 68.8693 126.54 69.178 126.767 69.5909C126.994 70.0038 127.108 70.5568 127.108 71.25V77H125.767V75.8182H125.699C125.608 76.0076 125.456 76.2102 125.244 76.4261C125.032 76.642 124.75 76.8258 124.398 76.9773C124.045 77.1288 123.616 77.2045 123.108 77.2045ZM123.312 76C123.843 76 124.29 75.8958 124.653 75.6875C125.021 75.4792 125.297 75.2102 125.483 74.8807C125.672 74.5511 125.767 74.2045 125.767 73.8409V72.6136C125.71 72.6818 125.585 72.7443 125.392 72.8011C125.203 72.8542 124.983 72.9015 124.733 72.9432C124.487 72.9811 124.246 73.0152 124.011 73.0455C123.78 73.072 123.593 73.0947 123.449 73.1136C123.1 73.1591 122.775 73.233 122.472 73.3352C122.172 73.4337 121.93 73.5833 121.744 73.7841C121.563 73.9811 121.472 74.25 121.472 74.5909C121.472 75.0568 121.644 75.4091 121.989 75.6477C122.337 75.8826 122.778 76 123.312 76ZM132.851 77.1818C132.124 77.1818 131.482 76.9981 130.925 76.6307C130.368 76.2595 129.932 75.7367 129.618 75.0625C129.304 74.3845 129.146 73.5833 129.146 72.6591C129.146 71.7424 129.304 70.947 129.618 70.2727C129.932 69.5985 130.37 69.0777 130.93 68.7102C131.491 68.3428 132.139 68.1591 132.874 68.1591C133.442 68.1591 133.891 68.2538 134.22 68.4432C134.554 68.6288 134.807 68.8409 134.982 69.0795C135.16 69.3144 135.298 69.5076 135.396 69.6591H135.51V65.3636H136.851V77H135.555V75.6591H135.396C135.298 75.8182 135.158 76.0189 134.976 76.2614C134.794 76.5 134.535 76.714 134.197 76.9034C133.86 77.089 133.411 77.1818 132.851 77.1818ZM133.033 75.9773C133.571 75.9773 134.025 75.8371 134.396 75.5568C134.768 75.2727 135.05 74.8807 135.243 74.3807C135.436 73.8769 135.533 73.2955 135.533 72.6364C135.533 71.9848 135.438 71.4148 135.249 70.9261C135.059 70.4337 134.779 70.0511 134.408 69.7784C134.036 69.5019 133.578 69.3636 133.033 69.3636C132.464 69.3636 131.991 69.5095 131.612 69.8011C131.237 70.089 130.955 70.4811 130.766 70.9773C130.58 71.4697 130.487 72.0227 130.487 72.6364C130.487 73.2576 130.582 73.822 130.771 74.3295C130.964 74.8333 131.249 75.2348 131.624 75.5341C132.002 75.8295 132.472 75.9773 133.033 75.9773ZM143.038 77.1818C142.25 77.1818 141.559 76.9943 140.964 76.6193C140.374 76.2443 139.911 75.7197 139.578 75.0455C139.249 74.3712 139.084 73.5833 139.084 72.6818C139.084 71.7727 139.249 70.9792 139.578 70.3011C139.911 69.6231 140.374 69.0966 140.964 68.7216C141.559 68.3466 142.25 68.1591 143.038 68.1591C143.826 68.1591 144.516 68.3466 145.107 68.7216C145.701 69.0966 146.163 69.6231 146.493 70.3011C146.826 70.9792 146.993 71.7727 146.993 72.6818C146.993 73.5833 146.826 74.3712 146.493 75.0455C146.163 75.7197 145.701 76.2443 145.107 76.6193C144.516 76.9943 143.826 77.1818 143.038 77.1818ZM143.038 75.9773C143.637 75.9773 144.129 75.8239 144.516 75.517C144.902 75.2102 145.188 74.8068 145.374 74.3068C145.559 73.8068 145.652 73.2652 145.652 72.6818C145.652 72.0985 145.559 71.5549 145.374 71.0511C145.188 70.5473 144.902 70.1402 144.516 69.8295C144.129 69.5189 143.637 69.3636 143.038 69.3636C142.44 69.3636 141.947 69.5189 141.561 69.8295C141.175 70.1402 140.889 70.5473 140.703 71.0511C140.518 71.5549 140.425 72.0985 140.425 72.6818C140.425 73.2652 140.518 73.8068 140.703 74.3068C140.889 74.8068 141.175 75.2102 141.561 75.517C141.947 75.8239 142.44 75.9773 143.038 75.9773ZM155.222 70.2273L154.017 70.5682C153.941 70.3674 153.83 70.1723 153.682 69.983C153.538 69.7898 153.341 69.6307 153.091 69.5057C152.841 69.3807 152.521 69.3182 152.131 69.3182C151.597 69.3182 151.152 69.4413 150.795 69.6875C150.443 69.9299 150.267 70.2386 150.267 70.6136C150.267 70.947 150.388 71.2102 150.631 71.4034C150.873 71.5966 151.252 71.7576 151.767 71.8864L153.062 72.2045C153.843 72.3939 154.424 72.6837 154.807 73.0739C155.189 73.4602 155.381 73.9583 155.381 74.5682C155.381 75.0682 155.237 75.5152 154.949 75.9091C154.665 76.303 154.267 76.6136 153.756 76.8409C153.244 77.0682 152.65 77.1818 151.972 77.1818C151.081 77.1818 150.345 76.9886 149.761 76.6023C149.178 76.2159 148.809 75.6515 148.653 74.9091L149.926 74.5909C150.047 75.0606 150.277 75.4129 150.614 75.6477C150.955 75.8826 151.4 76 151.949 76C152.574 76 153.07 75.8674 153.438 75.6023C153.809 75.3333 153.994 75.0114 153.994 74.6364C153.994 74.3333 153.888 74.0795 153.676 73.875C153.464 73.6667 153.138 73.5114 152.699 73.4091L151.244 73.0682C150.445 72.8788 149.858 72.5852 149.483 72.1875C149.112 71.786 148.926 71.2841 148.926 70.6818C148.926 70.1894 149.064 69.7538 149.341 69.375C149.621 68.9962 150.002 68.6989 150.483 68.483C150.968 68.267 151.517 68.1591 152.131 68.1591C152.994 68.1591 153.672 68.3485 154.165 68.7273C154.661 69.1061 155.013 69.6061 155.222 70.2273ZM165.558 77.1818C164.717 77.1818 163.992 76.9962 163.382 76.625C162.776 76.25 162.308 75.7273 161.979 75.0568C161.653 74.3826 161.49 73.5985 161.49 72.7045C161.49 71.8106 161.653 71.0227 161.979 70.3409C162.308 69.6553 162.767 69.1212 163.354 68.7386C163.945 68.3523 164.634 68.1591 165.422 68.1591C165.876 68.1591 166.325 68.2348 166.768 68.3864C167.212 68.5379 167.615 68.7841 167.979 69.125C168.342 69.4621 168.632 69.9091 168.848 70.4659C169.064 71.0227 169.172 71.7083 169.172 72.5227V73.0909H162.445V71.9318H167.808C167.808 71.4394 167.71 71 167.513 70.6136C167.32 70.2273 167.043 69.9223 166.683 69.6989C166.327 69.4754 165.907 69.3636 165.422 69.3636C164.888 69.3636 164.426 69.4962 164.036 69.7614C163.649 70.0227 163.352 70.3636 163.143 70.7841C162.935 71.2045 162.831 71.6553 162.831 72.1364V72.9091C162.831 73.5682 162.945 74.1269 163.172 74.5852C163.403 75.0398 163.723 75.3864 164.132 75.625C164.541 75.8598 165.017 75.9773 165.558 75.9773C165.911 75.9773 166.229 75.928 166.513 75.8295C166.801 75.7273 167.049 75.5758 167.257 75.375C167.465 75.1705 167.626 74.9167 167.74 74.6136L169.036 74.9773C168.899 75.4167 168.67 75.803 168.348 76.1364C168.026 76.4659 167.628 76.7235 167.155 76.9091C166.681 77.0909 166.149 77.1818 165.558 77.1818ZM171.212 77V68.2727H172.507V69.6364H172.621C172.803 69.1705 173.096 68.8087 173.501 68.5511C173.907 68.2898 174.393 68.1591 174.962 68.1591C175.537 68.1591 176.017 68.2898 176.399 68.5511C176.786 68.8087 177.087 69.1705 177.303 69.6364H177.393C177.617 69.1856 177.952 68.8277 178.399 68.5625C178.846 68.2936 179.382 68.1591 180.007 68.1591C180.787 68.1591 181.426 68.4034 181.922 68.892C182.418 69.3769 182.666 70.1326 182.666 71.1591V77H181.325V71.1591C181.325 70.5152 181.149 70.0549 180.797 69.7784C180.445 69.5019 180.03 69.3636 179.553 69.3636C178.939 69.3636 178.464 69.5492 178.126 69.9205C177.789 70.2879 177.621 70.7538 177.621 71.3182V77H176.257V71.0227C176.257 70.5265 176.096 70.1269 175.774 69.8239C175.452 69.517 175.037 69.3636 174.53 69.3636C174.181 69.3636 173.856 69.4564 173.553 69.642C173.253 69.8277 173.011 70.0852 172.825 70.4148C172.643 70.7405 172.553 71.1174 172.553 71.5455V77H171.212ZM195.8 70.2273L194.595 70.5682C194.519 70.3674 194.408 70.1723 194.26 69.983C194.116 69.7898 193.919 69.6307 193.669 69.5057C193.419 69.3807 193.099 69.3182 192.709 69.3182C192.175 69.3182 191.73 69.4413 191.374 69.6875C191.021 69.9299 190.845 70.2386 190.845 70.6136C190.845 70.947 190.966 71.2102 191.209 71.4034C191.451 71.5966 191.83 71.7576 192.345 71.8864L193.641 72.2045C194.421 72.3939 195.002 72.6837 195.385 73.0739C195.768 73.4602 195.959 73.9583 195.959 74.5682C195.959 75.0682 195.815 75.5152 195.527 75.9091C195.243 76.303 194.845 76.6136 194.334 76.8409C193.822 77.0682 193.228 77.1818 192.55 77.1818C191.66 77.1818 190.923 76.9886 190.339 76.6023C189.756 76.2159 189.387 75.6515 189.232 74.9091L190.504 74.5909C190.625 75.0606 190.855 75.4129 191.192 75.6477C191.533 75.8826 191.978 76 192.527 76C193.152 76 193.648 75.8674 194.016 75.6023C194.387 75.3333 194.572 75.0114 194.572 74.6364C194.572 74.3333 194.466 74.0795 194.254 73.875C194.042 73.6667 193.716 73.5114 193.277 73.4091L191.822 73.0682C191.023 72.8788 190.436 72.5852 190.061 72.1875C189.69 71.786 189.504 71.2841 189.504 70.6818C189.504 70.1894 189.643 69.7538 189.919 69.375C190.199 68.9962 190.58 68.6989 191.061 68.483C191.546 68.267 192.095 68.1591 192.709 68.1591C193.572 68.1591 194.25 68.3485 194.743 68.7273C195.239 69.1061 195.591 69.6061 195.8 70.2273ZM200.545 77.2045C199.992 77.2045 199.491 77.1004 199.04 76.892C198.589 76.6799 198.231 76.375 197.966 75.9773C197.701 75.5758 197.568 75.0909 197.568 74.5227C197.568 74.0227 197.667 73.6174 197.864 73.3068C198.061 72.9924 198.324 72.7462 198.653 72.5682C198.983 72.3902 199.347 72.2576 199.744 72.1705C200.146 72.0795 200.549 72.0076 200.955 71.9545C201.485 71.8864 201.915 71.8352 202.244 71.8011C202.578 71.7633 202.82 71.7008 202.972 71.6136C203.127 71.5265 203.205 71.375 203.205 71.1591V71.1136C203.205 70.553 203.051 70.1174 202.744 69.8068C202.441 69.4962 201.981 69.3409 201.364 69.3409C200.723 69.3409 200.222 69.4811 199.858 69.7614C199.494 70.0417 199.239 70.3409 199.091 70.6591L197.818 70.2045C198.045 69.6742 198.348 69.2614 198.727 68.9659C199.11 68.6667 199.527 68.4583 199.977 68.3409C200.432 68.2197 200.879 68.1591 201.318 68.1591C201.598 68.1591 201.92 68.1932 202.284 68.2614C202.652 68.3258 203.006 68.4602 203.347 68.6648C203.691 68.8693 203.977 69.178 204.205 69.5909C204.432 70.0038 204.545 70.5568 204.545 71.25V77H203.205V75.8182H203.136C203.045 76.0076 202.894 76.2102 202.682 76.4261C202.47 76.642 202.188 76.8258 201.835 76.9773C201.483 77.1288 201.053 77.2045 200.545 77.2045ZM200.75 76C201.28 76 201.727 75.8958 202.091 75.6875C202.458 75.4792 202.735 75.2102 202.92 74.8807C203.11 74.5511 203.205 74.2045 203.205 73.8409V72.6136C203.148 72.6818 203.023 72.7443 202.83 72.8011C202.64 72.8542 202.42 72.9015 202.17 72.9432C201.924 72.9811 201.684 73.0152 201.449 73.0455C201.218 73.072 201.03 73.0947 200.886 73.1136C200.538 73.1591 200.212 73.233 199.909 73.3352C199.61 73.4337 199.367 73.5833 199.182 73.7841C199 73.9811 198.909 74.25 198.909 74.5909C198.909 75.0568 199.081 75.4091 199.426 75.6477C199.775 75.8826 200.216 76 200.75 76ZM212.493 73.4318V68.2727H213.834V77H212.493V75.5227H212.402C212.197 75.9659 211.879 76.3428 211.447 76.6534C211.016 76.9602 210.47 77.1136 209.811 77.1136C209.266 77.1136 208.781 76.9943 208.357 76.7557C207.932 76.5133 207.599 76.1496 207.357 75.6648C207.114 75.1761 206.993 74.5606 206.993 73.8182V68.2727H208.334V73.7273C208.334 74.3636 208.512 74.8712 208.868 75.25C209.228 75.6288 209.686 75.8182 210.243 75.8182C210.576 75.8182 210.915 75.733 211.26 75.5625C211.608 75.392 211.9 75.1307 212.135 74.7784C212.374 74.4261 212.493 73.9773 212.493 73.4318ZM209.811 67.0909L211.197 64.4545H212.766L210.993 67.0909H209.811ZM219.585 77.1818C218.858 77.1818 218.216 76.9981 217.659 76.6307C217.102 76.2595 216.667 75.7367 216.352 75.0625C216.038 74.3845 215.881 73.5833 215.881 72.6591C215.881 71.7424 216.038 70.947 216.352 70.2727C216.667 69.5985 217.104 69.0777 217.665 68.7102C218.225 68.3428 218.873 68.1591 219.608 68.1591C220.176 68.1591 220.625 68.2538 220.955 68.4432C221.288 68.6288 221.542 68.8409 221.716 69.0795C221.894 69.3144 222.032 69.5076 222.131 69.6591H222.244V65.3636H223.585V77H222.29V75.6591H222.131C222.032 75.8182 221.892 76.0189 221.71 76.2614C221.528 76.5 221.269 76.714 220.932 76.9034C220.595 77.089 220.146 77.1818 219.585 77.1818ZM219.767 75.9773C220.305 75.9773 220.759 75.8371 221.131 75.5568C221.502 75.2727 221.784 74.8807 221.977 74.3807C222.17 73.8769 222.267 73.2955 222.267 72.6364C222.267 71.9848 222.172 71.4148 221.983 70.9261C221.794 70.4337 221.513 70.0511 221.142 69.7784C220.771 69.5019 220.313 69.3636 219.767 69.3636C219.199 69.3636 218.725 69.5095 218.347 69.8011C217.972 70.089 217.689 70.4811 217.5 70.9773C217.314 71.4697 217.222 72.0227 217.222 72.6364C217.222 73.2576 217.316 73.822 217.506 74.3295C217.699 74.8333 217.983 75.2348 218.358 75.5341C218.737 75.8295 219.206 75.9773 219.767 75.9773ZM229.886 77.1818C229.045 77.1818 228.32 76.9962 227.71 76.625C227.104 76.25 226.636 75.7273 226.307 75.0568C225.981 74.3826 225.818 73.5985 225.818 72.7045C225.818 71.8106 225.981 71.0227 226.307 70.3409C226.636 69.6553 227.095 69.1212 227.682 68.7386C228.273 68.3523 228.962 68.1591 229.75 68.1591C230.205 68.1591 230.653 68.2348 231.097 68.3864C231.54 68.5379 231.943 68.7841 232.307 69.125C232.67 69.4621 232.96 69.9091 233.176 70.4659C233.392 71.0227 233.5 71.7083 233.5 72.5227V73.0909H226.773V71.9318H232.136C232.136 71.4394 232.038 71 231.841 70.6136C231.648 70.2273 231.371 69.9223 231.011 69.6989C230.655 69.4754 230.235 69.3636 229.75 69.3636C229.216 69.3636 228.754 69.4962 228.364 69.7614C227.977 70.0227 227.68 70.3636 227.472 70.7841C227.263 71.2045 227.159 71.6553 227.159 72.1364V72.9091C227.159 73.5682 227.273 74.1269 227.5 74.5852C227.731 75.0398 228.051 75.3864 228.46 75.625C228.869 75.8598 229.345 75.9773 229.886 75.9773C230.239 75.9773 230.557 75.928 230.841 75.8295C231.129 75.7273 231.377 75.5758 231.585 75.375C231.794 75.1705 231.955 74.9167 232.068 74.6136L233.364 74.9773C233.227 75.4167 232.998 75.803 232.676 76.1364C232.354 76.4659 231.956 76.7235 231.483 76.9091C231.009 77.0909 230.477 77.1818 229.886 77.1818ZM240.04 77V68.2727H241.335V69.6364H241.449C241.631 69.1705 241.924 68.8087 242.33 68.5511C242.735 68.2898 243.222 68.1591 243.79 68.1591C244.366 68.1591 244.845 68.2898 245.227 68.5511C245.614 68.8087 245.915 69.1705 246.131 69.6364H246.222C246.445 69.1856 246.78 68.8277 247.227 68.5625C247.674 68.2936 248.21 68.1591 248.835 68.1591C249.616 68.1591 250.254 68.4034 250.75 68.892C251.246 69.3769 251.494 70.1326 251.494 71.1591V77H250.153V71.1591C250.153 70.5152 249.977 70.0549 249.625 69.7784C249.273 69.5019 248.858 69.3636 248.381 69.3636C247.767 69.3636 247.292 69.5492 246.955 69.9205C246.617 70.2879 246.449 70.7538 246.449 71.3182V77H245.085V71.0227C245.085 70.5265 244.924 70.1269 244.602 69.8239C244.28 69.517 243.866 69.3636 243.358 69.3636C243.009 69.3636 242.684 69.4564 242.381 69.642C242.081 69.8277 241.839 70.0852 241.653 70.4148C241.472 70.7405 241.381 71.1174 241.381 71.5455V77H240.04ZM257.605 77.1818C256.764 77.1818 256.039 76.9962 255.429 76.625C254.823 76.25 254.355 75.7273 254.026 75.0568C253.7 74.3826 253.537 73.5985 253.537 72.7045C253.537 71.8106 253.7 71.0227 254.026 70.3409C254.355 69.6553 254.813 69.1212 255.401 68.7386C255.991 68.3523 256.681 68.1591 257.469 68.1591C257.923 68.1591 258.372 68.2348 258.815 68.3864C259.259 68.5379 259.662 68.7841 260.026 69.125C260.389 69.4621 260.679 69.9091 260.895 70.4659C261.111 71.0227 261.219 71.7083 261.219 72.5227V73.0909H254.491V71.9318H259.855C259.855 71.4394 259.757 71 259.56 70.6136C259.366 70.2273 259.09 69.9223 258.73 69.6989C258.374 69.4754 257.954 69.3636 257.469 69.3636C256.935 69.3636 256.473 69.4962 256.082 69.7614C255.696 70.0227 255.399 70.3636 255.19 70.7841C254.982 71.2045 254.878 71.6553 254.878 72.1364V72.9091C254.878 73.5682 254.991 74.1269 255.219 74.5852C255.45 75.0398 255.77 75.3864 256.179 75.625C256.588 75.8598 257.063 75.9773 257.605 75.9773C257.957 75.9773 258.276 75.928 258.56 75.8295C258.848 75.7273 259.096 75.5758 259.304 75.375C259.512 75.1705 259.673 74.9167 259.787 74.6136L261.082 74.9773C260.946 75.4167 260.717 75.803 260.395 76.1364C260.073 76.4659 259.675 76.7235 259.202 76.9091C258.728 77.0909 258.196 77.1818 257.605 77.1818ZM264.599 71.75V77H263.259V68.2727H264.554V69.6364H264.668C264.872 69.1932 265.183 68.8371 265.599 68.5682C266.016 68.2955 266.554 68.1591 267.213 68.1591C267.804 68.1591 268.321 68.2803 268.764 68.5227C269.207 68.7614 269.552 69.125 269.798 69.6136C270.045 70.0985 270.168 70.7121 270.168 71.4545V77H268.827V71.5455C268.827 70.8598 268.649 70.3258 268.293 69.9432C267.937 69.5568 267.448 69.3636 266.827 69.3636C266.399 69.3636 266.016 69.4564 265.679 69.642C265.346 69.8277 265.082 70.0985 264.889 70.4545C264.696 70.8106 264.599 71.2424 264.599 71.75ZM276.413 68.2727V69.4091H271.891V68.2727H276.413ZM273.209 66.1818H274.55V74.5C274.55 74.8788 274.605 75.1629 274.714 75.3523C274.828 75.5379 274.972 75.6629 275.146 75.7273C275.324 75.7879 275.512 75.8182 275.709 75.8182C275.857 75.8182 275.978 75.8106 276.072 75.7955C276.167 75.7765 276.243 75.7614 276.3 75.75L276.572 76.9545C276.482 76.9886 276.355 77.0227 276.192 77.0568C276.029 77.0947 275.822 77.1136 275.572 77.1136C275.194 77.1136 274.822 77.0322 274.459 76.8693C274.099 76.7064 273.8 76.4583 273.561 76.125C273.326 75.7917 273.209 75.3712 273.209 74.8636V66.1818ZM280.999 77.2045C280.446 77.2045 279.944 77.1004 279.493 76.892C279.042 76.6799 278.684 76.375 278.419 75.9773C278.154 75.5758 278.021 75.0909 278.021 74.5227C278.021 74.0227 278.12 73.6174 278.317 73.3068C278.514 72.9924 278.777 72.7462 279.107 72.5682C279.436 72.3902 279.8 72.2576 280.197 72.1705C280.599 72.0795 281.002 72.0076 281.408 71.9545C281.938 71.8864 282.368 71.8352 282.697 71.8011C283.031 71.7633 283.273 71.7008 283.425 71.6136C283.58 71.5265 283.658 71.375 283.658 71.1591V71.1136C283.658 70.553 283.504 70.1174 283.197 69.8068C282.894 69.4962 282.434 69.3409 281.817 69.3409C281.177 69.3409 280.675 69.4811 280.311 69.7614C279.947 70.0417 279.692 70.3409 279.544 70.6591L278.271 70.2045C278.499 69.6742 278.802 69.2614 279.18 68.9659C279.563 68.6667 279.98 68.4583 280.43 68.3409C280.885 68.2197 281.332 68.1591 281.771 68.1591C282.052 68.1591 282.374 68.1932 282.737 68.2614C283.105 68.3258 283.459 68.4602 283.8 68.6648C284.144 68.8693 284.43 69.178 284.658 69.5909C284.885 70.0038 284.999 70.5568 284.999 71.25V77H283.658V75.8182H283.589C283.499 76.0076 283.347 76.2102 283.135 76.4261C282.923 76.642 282.641 76.8258 282.288 76.9773C281.936 77.1288 281.506 77.2045 280.999 77.2045ZM281.203 76C281.733 76 282.18 75.8958 282.544 75.6875C282.911 75.4792 283.188 75.2102 283.374 74.8807C283.563 74.5511 283.658 74.2045 283.658 73.8409V72.6136C283.601 72.6818 283.476 72.7443 283.283 72.8011C283.093 72.8542 282.874 72.9015 282.624 72.9432C282.377 72.9811 282.137 73.0152 281.902 73.0455C281.671 73.072 281.483 73.0947 281.339 73.1136C280.991 73.1591 280.665 73.233 280.362 73.3352C280.063 73.4337 279.821 73.5833 279.635 73.7841C279.453 73.9811 279.362 74.25 279.362 74.5909C279.362 75.0568 279.535 75.4091 279.879 75.6477C280.228 75.8826 280.669 76 281.203 76ZM288.787 65.3636V77H287.446V65.3636H288.787ZM292.22 77.0909C291.94 77.0909 291.699 76.9905 291.499 76.7898C291.298 76.589 291.197 76.3485 291.197 76.0682C291.197 75.7879 291.298 75.5473 291.499 75.3466C291.699 75.1458 291.94 75.0455 292.22 75.0455C292.5 75.0455 292.741 75.1458 292.942 75.3466C293.143 75.5473 293.243 75.7879 293.243 76.0682C293.243 76.2538 293.196 76.4242 293.101 76.5795C293.01 76.7348 292.887 76.8598 292.732 76.9545C292.58 77.0455 292.41 77.0909 292.22 77.0909Z" fill="#FEE9E7"/>
</svg>
